<svg width="34" height="20" viewBox="0 0 34 20" fill="none" xmlns="http://www.w3.org/2000/svg">
<path d="M10.125 11.6665C6.58389 11.6665 3.61596 12.9025 2.82923 15.8493C2.59179 16.7386 3.37119 17.4998 4.29167 17.4998H15.9583C16.8788 17.4998 17.6582 16.7386 17.4208 15.8493C16.634 12.9025 13.6661 11.6665 10.125 11.6665Z" fill="#B0B0BF"/>
<path d="M14.2916 6.66667C14.2916 8.96785 12.4261 10.4167 10.1249 10.4167C7.82373 10.4167 5.95825 8.96785 5.95825 6.66667C5.95825 4.36548 7.82373 2.5 10.1249 2.5C12.4261 2.5 14.2916 4.36548 14.2916 6.66667Z" fill="#B0B0BF"/>
<path d="M26.375 5L26.375 15" stroke="#B0B0BF" stroke-width="2.5" stroke-linecap="round" stroke-linejoin="round"/>
<path d="M31.375 10L21.375 10" stroke="#B0B0BF" stroke-width="2.5" stroke-linecap="round" stroke-linejoin="round"/>
</svg>
