<svg width="35" height="20" viewBox="0 0 35 20" fill="none" xmlns="http://www.w3.org/2000/svg">
<path d="M10.625 11.6665C7.08389 11.6665 4.11596 12.9025 3.32923 15.8493C3.09179 16.7386 3.87119 17.4998 4.79167 17.4998H16.4583C17.3788 17.4998 18.1582 16.7386 17.9208 15.8493C17.134 12.9025 14.1661 11.6665 10.625 11.6665Z" fill="white"/>
<path d="M14.7917 6.66667C14.7917 8.96785 12.9262 10.4167 10.625 10.4167C8.32382 10.4167 6.45834 8.96785 6.45834 6.66667C6.45834 4.36548 8.32382 2.5 10.625 2.5C12.9262 2.5 14.7917 4.36548 14.7917 6.66667Z" fill="white"/>
<path d="M26.875 5L26.875 15" stroke="white" stroke-width="2.5" stroke-linecap="round" stroke-linejoin="round"/>
<path d="M31.875 10L21.875 10" stroke="white" stroke-width="2.5" stroke-linecap="round" stroke-linejoin="round"/>
</svg>
