<svg width="28" height="16" viewBox="0 0 28 16" fill="none" xmlns="http://www.w3.org/2000/svg">
<path d="M8.5 9.3335C5.66711 9.3335 3.29277 10.3223 2.66338 12.6797C2.47343 13.3912 3.09695 14.0002 3.83333 14.0002H13.1667C13.903 14.0002 14.5266 13.3912 14.3366 12.6797C13.7072 10.3223 11.3329 9.3335 8.5 9.3335Z" fill="white"/>
<path d="M11.8333 5.33333C11.8333 7.17428 10.3409 8.33333 8.49999 8.33333C6.65904 8.33333 5.16666 7.17428 5.16666 5.33333C5.16666 3.49238 6.65904 2 8.49999 2C10.3409 2 11.8333 3.49238 11.8333 5.33333Z" fill="white"/>
<path d="M21.5 4L21.5 12" stroke="white" stroke-width="2" stroke-linecap="round" stroke-linejoin="round"/>
<path d="M25.5 8L17.5 8" stroke="white" stroke-width="2" stroke-linecap="round" stroke-linejoin="round"/>
</svg>
