<svg width="24" height="24" viewBox="0 0 24 24" fill="none" xmlns="http://www.w3.org/2000/svg">
<rect width="24" height="24" rx="12" fill="#49495A"/>
<path d="M6.66675 7.07431C6.66675 6.44713 7.1042 5.90158 7.72027 5.78406C10.948 5.16834 13.1126 5.21209 16.2651 5.79149C16.8879 5.90596 17.3334 6.45449 17.3334 7.08776V15.9998C17.3334 16.7362 16.7365 17.3331 16.0001 17.3331H8.00008C7.2637 17.3331 6.66675 16.7362 6.66675 15.9998V7.07431Z" fill="white"/>
<path d="M8 11.8674C8 12.5378 8.49795 13.1072 9.16482 13.1764C11.2581 13.3938 12.7786 13.3792 14.8256 13.1717C15.4964 13.1037 16 12.5328 16 11.8586V9.3335C16 8.59712 15.403 8.00016 14.6667 8.00016H9.33333C8.59695 8.00016 8 8.59712 8 9.3335V11.8674Z" fill="#49495A"/>
<path d="M8 17.3335H10V17.8668C10 18.3087 9.64183 18.6668 9.2 18.6668H8.8C8.35817 18.6668 8 18.3087 8 17.8668V17.3335Z" fill="white"/>
<path d="M18.0781 10C18.4144 10 18.698 9.74964 18.7397 9.41602L18.9063 8.08269C18.9561 7.68479 18.6458 7.33333 18.2448 7.33333L18 7.33333C17.8159 7.33333 17.6667 7.48257 17.6667 7.66667L17.6667 9.66667C17.6667 9.85076 17.8159 10 18 10L18.0781 10Z" fill="white"/>
<path d="M5.92185 10C5.58564 10 5.30204 9.74964 5.26034 9.41602L5.09367 8.08269C5.04393 7.68479 5.35419 7.33333 5.75519 7.33333L6 7.33333C6.18409 7.33333 6.33333 7.48257 6.33333 7.66667L6.33333 9.66667C6.33333 9.85076 6.18409 10 6 10L5.92185 10Z" fill="white"/>
<path d="M14 17.3335H16V17.8668C16 18.3087 15.6418 18.6668 15.2 18.6668H14.8C14.3582 18.6668 14 18.3087 14 17.8668V17.3335Z" fill="white"/>
<circle cx="8.66667" cy="14.6667" r="0.666667" fill="#606076"/>
<circle cx="15.3334" cy="14.6667" r="0.666667" fill="#606076"/>
<rect x="10" y="15" width="4" height="1.33333" rx="0.4" fill="#CDCDD6"/>
<rect x="10.6667" y="6" width="2.66667" height="0.666667" rx="0.333333" fill="#9494A8"/>
</svg>
