<svg xmlns="http://www.w3.org/2000/svg" width="20" height="20" viewBox="0 0 20 20" fill="none">
  <path d="M2.625 14.6562H6.125V16.2312C6.125 16.8111 5.6549 17.2812 5.075 17.2812H3.675C3.0951 17.2812 2.625 16.8111 2.625 16.2312V14.6562Z" fill="#49495A"/>
  <path d="M14.875 14.6562H18.375V16.2312C18.375 16.8111 17.9049 17.2812 17.325 17.2812H15.925C15.3451 17.2812 14.875 16.8111 14.875 16.2312V14.6562Z" fill="#49495A"/>
  <path fill-rule="evenodd" clip-rule="evenodd" d="M16.7486 5.22136C16.5398 4.57206 15.9719 4.10109 15.294 4.02651C11.6563 3.62635 9.21526 3.62538 5.6999 4.023C5.02497 4.09935 4.46096 4.56956 4.2531 5.21621L2.7929 9.75906C2.68165 10.1052 2.625 10.4665 2.625 10.8301V14.6564C2.625 15.1397 3.01675 15.5314 3.5 15.5314H17.5C17.9832 15.5314 18.375 15.1397 18.375 14.6564V10.8301C18.375 10.4665 18.3184 10.1052 18.2071 9.75906L16.7486 5.22136Z" fill="#007AFF"/>
  <path d="M5.7276 5.9792C5.83709 5.66638 6.11485 5.4416 6.44393 5.40218C9.52973 5.03253 11.4731 5.0302 14.5567 5.40181C14.8854 5.44143 15.1628 5.66612 15.2722 5.97867L16.2176 8.67972C16.4167 9.24862 15.9944 9.84377 15.3917 9.84377H5.6083C5.00555 9.84377 4.5833 9.24862 4.78242 8.67972L5.7276 5.9792Z" fill="white"/>
  <path d="M17.884 7.74122C17.7001 7.28142 18.0483 6.78125 18.5435 6.78125C18.9301 6.78125 19.25 7.09465 19.25 7.48125V8.44699C19.25 8.73515 19.0164 8.96875 18.7282 8.96875C18.5149 8.96875 18.323 8.83886 18.2438 8.64077L17.884 7.74122Z" fill="#007AFF"/>
  <path d="M3.11601 7.74122C3.29993 7.28142 2.95172 6.78125 2.45649 6.78125C2.06989 6.78125 1.75 7.09465 1.75 7.48125V8.44699C1.75 8.73515 1.9836 8.96875 2.27175 8.96875C2.4851 8.96875 2.67696 8.83886 2.75619 8.64077L3.11601 7.74122Z" fill="#007AFF"/>
  <circle cx="5.25" cy="12.9062" r="0.875" fill="white"/>
  <circle cx="15.75" cy="12.9062" r="0.875" fill="white"/>
  <g style="mix-blend-mode:darken" opacity="0.3">
    <rect x="7.4375" y="12.0312" width="6.125" height="1.75" rx="0.525" fill="#1C1C22"/>
  </g>
</svg>