<svg width="24" height="24" viewBox="0 0 24 24" fill="none" xmlns="http://www.w3.org/2000/svg">
<g id="&#236;&#149;&#132;&#236;&#157;&#180;&#236;&#189;&#152;">
<path id="Rectangle 1664145057" d="M3 16.75H7V18.55C7 19.2127 6.46274 19.75 5.8 19.75H4.2C3.53726 19.75 3 19.2127 3 18.55V16.75Z" fill="white"/>
<path id="Rectangle 1664145058" d="M17 16.75H21V18.55C21 19.2127 20.4627 19.75 19.8 19.75H18.2C17.5373 19.75 17 19.2127 17 18.55V16.75Z" fill="white"/>
<path id="Union" fill-rule="evenodd" clip-rule="evenodd" d="M19.1412 5.96727C18.9027 5.22521 18.2536 4.68696 17.4788 4.60173C13.3215 4.1444 10.5317 4.14329 6.51418 4.59772C5.74282 4.68497 5.09824 5.22235 4.86069 5.96139L3.19189 11.1532C3.06474 11.5488 3 11.9617 3 12.3773V16.7502C3 17.3025 3.44772 17.7502 4 17.7502H20C20.5523 17.7502 21 17.3025 21 16.7502V12.3773C21 11.9617 20.9353 11.5488 20.8081 11.1532L19.1412 5.96727Z" fill="white"/>
<path id="Rectangle 1664145069" d="M6.54583 6.83331C6.67096 6.47579 6.9884 6.2189 7.36449 6.17385C10.8911 5.75139 13.1121 5.74873 16.6362 6.17343C17.0119 6.2187 17.3289 6.4755 17.454 6.8327L18.5344 9.91961C18.7619 10.5698 18.2794 11.25 17.5905 11.25H6.40948C5.72063 11.25 5.23806 10.5698 5.46562 9.91961L6.54583 6.83331Z" fill="#007AFF"/>
<path id="Rectangle 1664145071" d="M20.4388 8.84711C20.2286 8.32162 20.6266 7.75 21.1926 7.75C21.6344 7.75 22 8.10817 22 8.55V9.65371C22 9.98303 21.733 10.25 21.4037 10.25C21.1599 10.25 20.9406 10.1016 20.8501 9.87517L20.4388 8.84711Z" fill="white"/>
<path id="Rectangle 1664145072" d="M3.56115 8.84711C3.77135 8.32162 3.37339 7.75 2.80742 7.75C2.36559 7.75 2 8.10817 2 8.55V9.65371C2 9.98303 2.26697 10.25 2.59629 10.25C2.84012 10.25 3.05938 10.1016 3.14993 9.87517L3.56115 8.84711Z" fill="white"/>
<circle id="Ellipse 2633" cx="6" cy="14.75" r="1" fill="#007AFF"/>
<circle id="Ellipse 2634" cx="18" cy="14.75" r="1" fill="#007AFF"/>
<g id="Rectangle 1664145062" style="mix-blend-mode:darken" opacity="0.3">
<rect x="8.5" y="13.75" width="7" height="2" rx="0.6" fill="#007AFF"/>
</g>
</g>
</svg>
