<svg width="20" height="21" viewBox="0 0 20 21" fill="none" xmlns="http://www.w3.org/2000/svg">
<g id="&#236;&#149;&#132;&#236;&#157;&#180;&#236;&#189;&#152;">
<path id="Rectangle 1664145057" d="M2.5 14.4585H5.83333V15.9585C5.83333 16.5108 5.38562 16.9585 4.83333 16.9585H3.5C2.94771 16.9585 2.5 16.5108 2.5 15.9585V14.4585Z" fill="#49495A"/>
<path id="Rectangle 1664145058" d="M14.1666 14.4585H17.5V15.9585C17.5 16.5108 17.0522 16.9585 16.5 16.9585H15.1666C14.6143 16.9585 14.1666 16.5108 14.1666 15.9585V14.4585Z" fill="#49495A"/>
<path id="Union" fill-rule="evenodd" clip-rule="evenodd" d="M15.951 5.47289C15.7522 4.8545 15.2114 4.40596 14.5657 4.33494C11.1012 3.95383 8.77644 3.9529 5.42848 4.33159C4.78568 4.4043 4.24853 4.85212 4.05057 5.46798L2.6599 9.79451C2.55395 10.1241 2.5 10.4683 2.5 10.8145V14.4587C2.5 14.9189 2.8731 15.292 3.33333 15.292H16.6667C17.1269 15.292 17.5 14.9189 17.5 14.4587V10.8145C17.5 10.4683 17.4461 10.1242 17.3401 9.79451L15.951 5.47289Z" fill="#007AFF"/>
<path id="Rectangle 1664145069" d="M5.45482 6.19434C5.55909 5.89641 5.82363 5.68234 6.13704 5.64479C9.07589 5.29274 10.9267 5.29053 13.8635 5.64444C14.1766 5.68217 14.4407 5.89617 14.5449 6.19383L15.4453 8.76626C15.6349 9.30807 15.2328 9.87488 14.6587 9.87488H5.34119C4.76715 9.87488 4.36501 9.30807 4.55464 8.76626L5.45482 6.19434Z" fill="white"/>
<path id="Rectangle 1664145071" d="M17.0323 7.87276C16.8572 7.43485 17.1888 6.9585 17.6604 6.9585C18.0286 6.9585 18.3333 7.25697 18.3333 7.62516V8.54492C18.3333 8.81936 18.1108 9.04183 17.8364 9.04183C17.6332 9.04183 17.4505 8.91812 17.375 8.72947L17.0323 7.87276Z" fill="#007AFF"/>
<path id="Rectangle 1664145072" d="M2.96767 7.87276C3.14283 7.43485 2.8112 6.9585 2.33956 6.9585C1.97137 6.9585 1.66671 7.25697 1.66671 7.62516V8.54492C1.66671 8.81936 1.88918 9.04183 2.16362 9.04183C2.36681 9.04183 2.54952 8.91812 2.62499 8.72947L2.96767 7.87276Z" fill="#007AFF"/>
<circle id="Ellipse 2633" cx="4.99996" cy="12.7918" r="0.833333" fill="white"/>
<circle id="Ellipse 2634" cx="15" cy="12.7918" r="0.833333" fill="white"/>
<g id="Rectangle 1664145062" style="mix-blend-mode:darken" opacity="0.3">
<rect x="7.08337" y="11.9585" width="5.83333" height="1.66667" rx="0.5" fill="#1C1C22"/>
</g>
</g>
</svg>
