<svg width="160" height="160" viewBox="0 0 160 160" fill="none" xmlns="http://www.w3.org/2000/svg">
<path d="M120.138 28.902C120.74 25.3182 123.815 19.3363 132.447 21.8209C143.074 24.8801 140.44 40.0575 132.528 40.8704C126.518 41.488 125.686 46.2674 125.954 48.1582" stroke="#FF7F7F" stroke-width="8" stroke-linecap="round"/>
<ellipse cx="124.173" cy="58.2725" rx="3.74098" ry="3.78227" transform="rotate(46.025 124.173 58.2725)" fill="#FF7F7F"/>
<ellipse cx="67.0103" cy="84.3203" rx="45.0163" ry="46.4231" transform="rotate(3.82175 67.0103 84.3203)" fill="#FFE4E4"/>
<mask id="mask0_1327_11866" style="mask-type:alpha" maskUnits="userSpaceOnUse" x="21" y="37" width="92" height="94">
<ellipse cx="67.0103" cy="84.3203" rx="45.0163" ry="46.4231" transform="rotate(3.82175 67.0103 84.3203)" fill="#FFE4E4"/>
</mask>
<g mask="url(#mask0_1327_11866)">
<path d="M13.9989 86.418C39.2186 88.1031 71.6083 74.1472 83.4378 59.9785C82.0742 80.3917 92.1339 98.6874 113.202 94.6582C121.732 80.914 128.586 49.5115 87.7676 33.8558C36.7443 14.286 -21.1484 84.0696 13.9989 86.418Z" fill="#32323E"/>
</g>
<ellipse cx="4.05301" cy="5.61133" rx="4.05301" ry="5.61133" transform="matrix(0.997776 0.0666526 -0.0883276 0.996091 67.291 92.3076)" fill="#32323E"/>
<ellipse cx="4.05301" cy="5.61133" rx="4.05301" ry="5.61133" transform="matrix(0.997776 0.0666526 -0.0883276 0.996091 48.4762 91.0508)" fill="#32323E"/>
<path d="M71.2855 83.6333C71.9681 84.785 74.0549 86.9259 76.9419 86.276" stroke="#32323E" stroke-width="2.81352" stroke-linecap="round"/>
<path d="M61.4735 109.328C63.6763 109.475 65.8812 110.676 66.5392 112.524C66.7997 113.256 66.0997 113.867 65.3245 113.815L58.3063 113.346C57.5311 113.294 56.9164 112.61 57.1663 111.874C57.7609 110.124 59.2806 109.182 61.4735 109.328Z" fill="#FF8E8E"/>
<path d="M99.882 98.6168C98.2807 104.97 98.3249 110.458 102.901 111.612C107.478 112.765 115.474 106.682 117.076 100.329C118.677 93.9762 115.644 90.3559 111.068 89.2024C106.491 88.0489 101.483 92.2639 99.882 98.6168Z" fill="#FFE4E4"/>
<path d="M102.931 102.789C110.203 105.247 115.836 111.41 118.308 116.681C120.518 121.395 120.778 126.065 120.584 129.47C120.58 129.919 120.554 130.369 120.507 130.821C120.498 131.45 120.393 132.056 120.204 132.625C120.165 132.791 120.125 132.958 120.08 133.123C117.986 140.885 109.996 145.48 102.234 143.386C94.4724 141.292 89.877 133.302 91.9709 125.54C93.3121 120.569 97.0721 116.895 101.641 115.448C100.859 114.895 100.01 114.456 99.0899 114.145L98.8016 114.04C95.8524 112.874 94.3051 109.585 95.332 106.547C96.3592 103.51 99.5835 101.835 102.635 102.697L102.931 102.789Z" fill="url(#paint0_linear_1327_11866)"/>
<defs>
<linearGradient id="paint0_linear_1327_11866" x1="98.8933" y1="101.687" x2="105.42" y2="128.281" gradientUnits="userSpaceOnUse">
<stop stop-color="#FFB6B6"/>
<stop offset="1" stop-color="#FFE4E4"/>
</linearGradient>
</defs>
</svg>
