<svg width="48" height="48" viewBox="0 0 48 48" fill="none" xmlns="http://www.w3.org/2000/svg">
<circle cx="24" cy="24" r="24" fill="#1C1C22"/>
<path d="M21 27.0003L27 21.0003M23 18.0003L23.463 17.4643C24.4008 16.5266 25.6727 15.9999 26.9989 16C28.325 16.0001 29.5968 16.527 30.5345 17.4648C31.4722 18.4026 31.9989 19.6745 31.9988 21.0007C31.9987 22.3268 31.4718 23.5986 30.534 24.5363L30 25.0003M25 30.0003L24.603 30.5343C23.654 31.472 22.3736 31.9979 21.0395 31.9979C19.7054 31.9979 18.425 31.472 17.476 30.5343C17.0081 30.072 16.6366 29.5215 16.3831 28.9146C16.1296 28.3077 15.999 27.6565 15.999 26.9988C15.999 26.3411 16.1296 25.6899 16.3831 25.083C16.6366 24.4761 17.0081 23.9256 17.476 23.4633L18 23.0003" stroke="white" stroke-width="2" stroke-linecap="round" stroke-linejoin="round"/>
</svg>
