<svg width="16" height="16" viewBox="0 0 16 16" fill="none" xmlns="http://www.w3.org/2000/svg">
<path fill-rule="evenodd" clip-rule="evenodd" d="M8.54057 14.371C10.0156 13.5124 14 10.8382 14 7.00448C14 3.87275 11.3137 1.33398 7.99999 1.33398C4.68628 1.33398 1.99999 3.87275 1.99999 7.00448C1.99999 10.7102 5.9954 13.4707 7.46549 14.361C7.79756 14.5621 8.20505 14.5663 8.54057 14.371ZM7.99999 9.33398C9.28866 9.33398 10.3333 8.45898 10.3333 7.00065C10.3333 5.54232 9.28866 4.66732 7.99999 4.66732C6.71133 4.66732 5.66666 5.54232 5.66666 7.00065C5.66666 8.45898 6.71133 9.33398 7.99999 9.33398Z" fill="#9494A8"/>
</svg>
