<svg width="20" height="20" viewBox="0 0 20 20" fill="none" xmlns="http://www.w3.org/2000/svg">
<g clip-path="url(#clip0_502_3468)">
<circle cx="10" cy="10" r="6.66667" stroke="#787891" stroke-width="1.66667"/>
<circle cx="9.99996" cy="10.0001" r="3.33333" fill="#787891"/>
<path d="M10.8333 1.66675C10.8333 1.20651 10.4602 0.833415 10 0.833415C9.53976 0.833415 9.16667 1.20651 9.16667 1.66675H10.8333ZM10.8333 3.33341V1.66675H9.16667V3.33341H10.8333Z" fill="#787891"/>
<path d="M10.8333 18.3333C10.8333 18.7935 10.4602 19.1666 10 19.1666C9.53976 19.1666 9.16667 18.7935 9.16667 18.3333H10.8333ZM10.8333 16.6666V18.3333H9.16667V16.6666H10.8333Z" fill="#787891"/>
<path d="M1.66663 10.8333C1.20639 10.8333 0.833293 10.4602 0.833293 10C0.833293 9.53976 1.20639 9.16667 1.66663 9.16667L1.66663 10.8333ZM3.33329 10.8333L1.66663 10.8333L1.66663 9.16667L3.33329 9.16667L3.33329 10.8333Z" fill="#787891"/>
<path d="M18.3334 10.8333C18.7936 10.8333 19.1667 10.4602 19.1667 10C19.1667 9.53976 18.7936 9.16667 18.3334 9.16667L18.3334 10.8333ZM16.6667 10.8333L18.3334 10.8333L18.3334 9.16667L16.6667 9.16667L16.6667 10.8333Z" fill="#787891"/>
</g>
<defs>
<clipPath id="clip0_502_3468">
<rect width="20" height="20" fill="white"/>
</clipPath>
</defs>
</svg>
