<svg width="26" height="29" viewBox="0 0 26 29" fill="none" xmlns="http://www.w3.org/2000/svg">
<mask id="path-1-inside-1_2451_19997" fill="white">
<path d="M3.80713 3.63672C8.88402 -1.21293 17.115 -1.21285 22.1919 3.63672C27.2687 8.48642 27.2688 16.3496 22.1919 21.1992C22.1762 21.2142 22.1598 21.2283 22.144 21.2432L15.443 27.6444C14.0758 28.9504 11.9232 28.9504 10.556 27.6444L3.85498 21.2432C3.83926 21.2283 3.82279 21.2142 3.80713 21.1992C-1.26975 16.3496 -1.26964 8.48642 3.80713 3.63672Z"/>
</mask>
<path d="M3.80713 3.63672C8.88402 -1.21293 17.115 -1.21285 22.1919 3.63672C27.2687 8.48642 27.2688 16.3496 22.1919 21.1992C22.1762 21.2142 22.1598 21.2283 22.144 21.2432L15.443 27.6444C14.0758 28.9504 11.9232 28.9504 10.556 27.6444L3.85498 21.2432C3.83926 21.2283 3.82279 21.2142 3.80713 21.1992C-1.26975 16.3496 -1.26964 8.48642 3.80713 3.63672Z" fill="#007AFF"/>
<path d="M3.80713 3.63672L2.01121 1.75665L2.01117 1.75668L3.80713 3.63672ZM22.1919 3.63672L23.9878 1.75668L23.9878 1.75663L22.1919 3.63672ZM22.1919 21.1992L23.9867 23.0804L23.9878 23.0793L22.1919 21.1992ZM22.144 21.2432L20.3577 19.354L20.3481 19.3631L22.144 21.2432ZM3.85498 21.2432L5.65094 19.3631L5.64098 19.3537L3.85498 21.2432ZM3.80713 21.1992L2.01121 23.0793L2.01195 23.08L3.80713 21.1992ZM15.443 27.6444L13.6471 25.7643L15.443 27.6444ZM3.80713 3.63672L5.60305 5.51679C9.67503 1.62707 16.3239 1.62709 20.396 5.51681L22.1919 3.63672L23.9878 1.75663C17.906 -4.0528 8.093 -4.05293 2.01121 1.75665L3.80713 3.63672ZM22.1919 3.63672L20.3959 5.51676C24.4007 9.34238 24.4007 15.4937 20.396 19.3191L22.1919 21.1992L23.9878 23.0793C30.1368 17.2055 30.1367 7.63046 23.9878 1.75668L22.1919 3.63672ZM22.1919 21.1992L20.3971 19.3181C20.4094 19.3064 20.4188 19.2977 20.4232 19.2936C20.4271 19.29 20.4296 19.2878 20.4255 19.2916C20.4234 19.2934 20.4136 19.3023 20.4035 19.3115C20.3925 19.3215 20.3764 19.3363 20.3577 19.354L22.144 21.2432L23.9304 23.1323C23.9195 23.1426 23.9114 23.15 23.9084 23.1528C23.9063 23.1547 23.9045 23.1563 23.9105 23.1509C23.9144 23.1474 23.9249 23.1379 23.9368 23.127C23.9492 23.1156 23.9666 23.0996 23.9867 23.0804L22.1919 21.1992ZM22.144 21.2432L20.3481 19.3631L13.6471 25.7643L15.443 27.6444L17.2389 29.5244L23.94 23.1232L22.144 21.2432ZM10.556 27.6444L12.352 25.7643L5.65091 19.3631L3.85498 21.2432L2.05904 23.1232L8.76009 29.5244L10.556 27.6444ZM3.85498 21.2432L5.64098 19.3537C5.62227 19.336 5.60628 19.3213 5.59536 19.3113C5.58533 19.3022 5.57552 19.2933 5.57354 19.2916C5.56946 19.2879 5.57198 19.2901 5.57597 19.2938C5.58049 19.2979 5.58996 19.3067 5.60231 19.3184L3.80713 21.1992L2.01195 23.08C2.03213 23.0993 2.04953 23.1154 2.06203 23.1268C2.07401 23.1378 2.08456 23.1473 2.08852 23.1509C2.09458 23.1564 2.09282 23.1548 2.09079 23.1529C2.08787 23.1503 2.07982 23.1429 2.06898 23.1327L3.85498 21.2432ZM3.80713 21.1992L5.60305 19.3191C1.59831 15.4937 1.59834 9.34238 5.60308 5.51676L3.80713 3.63672L2.01117 1.75668C-4.13762 7.63046 -4.13781 17.2055 2.01121 23.0793L3.80713 21.1992ZM15.443 27.6444L13.6471 25.7643C13.2847 26.1104 12.7143 26.1104 12.352 25.7643L10.556 27.6444L8.76009 29.5244C11.1322 31.7904 14.8668 31.7904 17.2389 29.5244L15.443 27.6444Z" fill="white" mask="url(#path-1-inside-1_2451_19997)"/>
<circle cx="13" cy="13.0001" r="3.9" fill="white"/>
</svg>
