<svg width="128" height="128" viewBox="0 0 128 128" fill="none" xmlns="http://www.w3.org/2000/svg">
<path d="M96.1105 23.1213C96.592 20.2542 99.052 15.4687 105.957 17.4564C114.459 19.9037 112.352 32.0457 106.023 32.696C101.214 33.19 100.549 37.0136 100.763 38.5262" stroke="#9494A8" stroke-width="6.4" stroke-linecap="round"/>
<ellipse cx="99.3385" cy="46.618" rx="2.99279" ry="3.02582" transform="rotate(46.025 99.3385 46.618)" fill="#9494A8"/>
<ellipse cx="53.6082" cy="67.4563" rx="36.0131" ry="37.1385" transform="rotate(3.82175 53.6082 67.4563)" fill="#F7F7F8"/>
<mask id="mask0_1985_6418" style="mask-type:alpha" maskUnits="userSpaceOnUse" x="17" y="30" width="73" height="75">
<ellipse cx="53.6082" cy="67.4563" rx="36.0131" ry="37.1385" transform="rotate(3.82175 53.6082 67.4563)" fill="#FFE4E4"/>
</mask>
<g mask="url(#mask0_1985_6418)">
<path d="M11.1992 69.1345C31.3749 70.4825 57.2867 59.3179 66.7503 47.9829C65.6594 64.3135 73.7071 78.95 90.5615 75.7267C97.3853 64.7313 102.869 39.6093 70.2141 27.0847C29.3955 11.4289 -16.9187 67.2558 11.1992 69.1345Z" fill="#B0B0BF"/>
</g>
<ellipse cx="3.24241" cy="4.48906" rx="3.24241" ry="4.48906" transform="matrix(0.997776 0.0666526 -0.0883276 0.996091 53.8328 73.8462)" fill="#B0B0BF"/>
<ellipse cx="3.24241" cy="4.48906" rx="3.24241" ry="4.48906" transform="matrix(0.997776 0.0666526 -0.0883276 0.996091 38.7808 72.8406)" fill="#B0B0BF"/>
<path d="M57.0286 66.9067C57.5746 67.8281 59.2441 69.5408 61.5537 69.0209" stroke="#B0B0BF" stroke-width="2.25082" stroke-linecap="round"/>
<path d="M49.1789 87.4626C50.9411 87.5803 52.705 88.5409 53.2314 90.0197C53.4398 90.6052 52.8798 91.0935 52.2597 91.0521L46.6451 90.6771C46.025 90.6356 45.5332 90.088 45.7331 89.4995C46.2088 88.0995 47.4245 87.3454 49.1789 87.4626Z" fill="#CDCDD6"/>
<path d="M79.9056 78.8934C78.6246 83.9757 78.66 88.3665 82.3211 89.2893C85.9822 90.2121 92.3796 85.3456 93.6607 80.2632C94.9417 75.1808 92.5153 72.2846 88.8542 71.3618C85.1931 70.439 81.1867 73.811 79.9056 78.8934Z" fill="#F7F7F8"/>
<path d="M82.344 82.2308C88.1619 84.1974 92.6688 89.127 94.6463 93.3443C96.4135 97.114 96.6224 100.849 96.4678 103.572C96.4643 103.928 96.4423 104.285 96.4053 104.644C96.3998 105.15 96.316 105.638 96.164 106.097C96.1329 106.231 96.0998 106.365 96.0637 106.499C94.3883 112.708 87.9973 116.383 81.788 114.708C75.5786 113.033 71.9027 106.642 73.5776 100.432C74.6506 96.4552 77.6588 93.5193 81.3142 92.3611C80.6877 91.9184 80.0093 91.5647 79.2729 91.3158L79.0416 91.2321C76.6822 90.2994 75.4445 87.6684 76.2659 85.2378C77.0876 82.8077 79.6666 81.4686 82.1077 82.158L82.344 82.2308Z" fill="url(#paint0_linear_1985_6418)"/>
<defs>
<linearGradient id="paint0_linear_1985_6418" x1="79.1148" y1="81.3502" x2="84.3359" y2="102.625" gradientUnits="userSpaceOnUse">
<stop stop-color="#CDCDD6"/>
<stop offset="1" stop-color="#F7F7F8"/>
</linearGradient>
</defs>
</svg>
