<svg xmlns="http://www.w3.org/2000/svg" width="20" height="20" viewBox="0 0 20 20" fill="none">
  <circle cx="9.99998" cy="6.3632" r="3.03019" fill="#9494A8"/>
  <circle cx="4.69714" cy="8.6369" r="2.27264" fill="#CDCDD6"/>
  <circle cx="15.3029" cy="8.6369" r="2.27264" fill="#CDCDD6"/>
  <path d="M5.45471 13.1816C5.45471 11.508 6.81137 10.1514 8.4849 10.1514H11.5151C13.1886 10.1514 14.5453 11.508 14.5453 13.1816V15.4542C14.5453 15.8726 14.2061 16.2117 13.7877 16.2117H6.21226C5.79388 16.2117 5.45471 15.8726 5.45471 15.4542V13.1816Z" fill="#9494A8"/>
  <path d="M16.0605 11.666C17.3155 11.6662 18.333 12.6844 18.333 13.9395V15.4541C18.3328 15.8723 17.9935 16.2119 17.5752 16.2119H15.1768V13.1816C15.1768 12.6289 15.0261 12.1122 14.7676 11.666H16.0605Z" fill="#CDCDD6"/>
  <path d="M4.44434 11.667C4.69677 11.667 4.93849 11.7105 5.16504 11.7871C4.94798 12.2048 4.82324 12.6784 4.82324 13.1816V16.2119H2.4248C2.00675 16.2119 1.66752 15.872 1.66699 15.4541V13.9395C1.66699 12.6844 2.68438 11.6671 3.93945 11.667H4.44434Z" fill="#CDCDD6"/>
</svg>