<svg xmlns="http://www.w3.org/2000/svg" width="14" height="14" viewBox="0 0 14 14" fill="none">
  <g clip-path="url(#clip0_1037_7939)">
    <path fill-rule="evenodd" clip-rule="evenodd" d="M7.81861 13.1556C9.16891 12.3696 12.8165 9.9215 12.8165 6.41185C12.8165 3.54486 10.3573 1.2207 7.32373 1.2207C4.29014 1.2207 1.83093 3.54486 1.83093 6.41185C1.83093 9.80431 5.48859 12.3314 6.83441 13.1465C7.13841 13.3306 7.51146 13.3344 7.81861 13.1556ZM7.32373 8.54435C8.50346 8.54435 9.45982 7.74332 9.45982 6.40826C9.45982 5.07321 8.50346 4.27218 7.32373 4.27218C6.144 4.27218 5.18764 5.07321 5.18764 6.40826C5.18764 7.74332 6.144 8.54435 7.32373 8.54435Z" fill="#007AFF"/>
  </g>
  <defs>
    <clipPath id="clip0_1037_7939">
      <rect width="14" height="14" fill="white"/>
    </clipPath>
  </defs>
</svg>