<svg width="160" height="160" viewBox="0 0 160 160" fill="none" xmlns="http://www.w3.org/2000/svg">
<g clip-path="url(#clip0_1327_11615)">
<ellipse cx="80" cy="158.5" rx="104" ry="52.5" fill="url(#paint0_radial_1327_11615)"/>
<path d="M59.1309 89.4297C59.8528 90.0311 60.9489 89.5177 60.9492 88.5781V71.543C60.9491 68.4817 58.4675 66.0001 55.4062 66H35.543C32.4816 66 30.0001 68.4816 30 71.543V80.7822C30.0002 83.8435 32.4817 86.3252 35.543 86.3252H55.4062L59.1309 89.4297Z" fill="#E6F2FF"/>
<path d="M74.4668 74.6641C73.0903 75.8112 71 74.8319 71 73.04V29.3135C71 23.4774 75.7313 18.7461 81.5674 18.7461H119.433C125.269 18.7461 130 23.4774 130 29.3135V58.1787C130 64.0148 125.269 68.7461 119.433 68.7461H81.5674L74.4668 74.6641Z" fill="#007AFF"/>
<path d="M134.393 80.8069C134.789 79.8023 136.211 79.8023 136.607 80.8069L137.715 83.615C137.835 83.9217 138.078 84.1645 138.385 84.2855L141.193 85.393C142.198 85.7892 142.198 87.2108 141.193 87.607L138.385 88.7145C138.078 88.8355 137.835 89.0783 137.715 89.385L136.607 92.1931C136.211 93.1977 134.789 93.1977 134.393 92.1931L133.285 89.385C133.165 89.0783 132.922 88.8355 132.615 88.7145L129.807 87.607C128.802 87.2108 128.802 85.7892 129.807 85.393L132.615 84.2855C132.922 84.1645 133.165 83.9217 133.285 83.615L134.393 80.8069Z" fill="#FFECAF"/>
<path d="M20.1325 38.4673C20.6219 37.2264 22.3781 37.2264 22.8675 38.4673L24.2356 41.9362C24.385 42.3151 24.6849 42.615 25.0638 42.7644L28.5327 44.1325C29.7736 44.6219 29.7736 46.3781 28.5327 46.8675L25.0638 48.2356C24.6849 48.385 24.385 48.6849 24.2356 49.0638L22.8675 52.5327C22.3781 53.7736 20.6219 53.7736 20.1325 52.5327L18.7644 49.0638C18.615 48.6849 18.3151 48.385 17.9362 48.2356L14.4673 46.8675C13.2264 46.3781 13.2264 44.6219 14.4673 44.1325L17.9362 42.7644C18.3151 42.615 18.615 42.3151 18.7644 41.9362L20.1325 38.4673Z" fill="#FFD240"/>
<path d="M96.0682 39.4066C96.2548 39.0749 96.6057 38.8696 96.9863 38.8696H113.352C116.011 38.8696 118.006 41.3023 117.484 43.9098L115.304 54.8129C114.997 56.3456 113.871 57.6014 112.35 57.9586C106.722 59.2799 101.243 59.292 95.7787 57.0589C94.6706 56.606 94 55.4952 94 54.2981V43.9112C94 43.3685 94.1398 42.8349 94.4059 42.3618L96.0682 39.4066Z" fill="white"/>
<path d="M98.572 31.9344C99.2617 29.8314 101.475 28.6339 103.612 29.2067C105.836 29.8026 107.156 32.0886 106.56 34.3126L103.481 45.8033L97.3698 43.9561L95.7444 40.5565L98.572 31.9344Z" fill="white"/>
<rect x="84" y="42" width="7" height="15" rx="2.63359" fill="white"/>
</g>
<defs>
<radialGradient id="paint0_radial_1327_11615" cx="0" cy="0" r="1" gradientUnits="userSpaceOnUse" gradientTransform="translate(80 106) rotate(90) scale(52.5 85.7986)">
<stop stop-color="#D9EBFF"/>
<stop offset="1" stop-color="#D9EBFF" stop-opacity="0"/>
</radialGradient>
<clipPath id="clip0_1327_11615">
<rect width="160" height="160" fill="white"/>
</clipPath>
</defs>
</svg>
