<svg width="18" height="18" viewBox="0 0 18 18" fill="none" xmlns="http://www.w3.org/2000/svg">
<path d="M9.98635 3.18653C10.4932 2.53124 11.4353 2.4109 12.0906 2.91773L14.3479 4.66369C15.0032 5.17052 15.1236 6.11261 14.6167 6.76791L8.25004 14.9994L3.75 11.2494L9.98635 3.18653Z" fill="#FECD74"/>
<path d="M9.98635 3.18647C10.4932 2.53121 11.4353 2.41089 12.0905 2.91771L14.3479 4.66369C15.0032 5.17052 15.1236 6.11261 14.6167 6.76791L13.6184 8.05859L9.02229 4.43282L9.98635 3.18647Z" fill="#F89595"/>
<path d="M3.4533 15.1071L3.75 11.25L8.25 15L4.36973 15.8954C3.8765 16.0093 3.41447 15.6118 3.4533 15.1071Z" fill="#FFE7D3"/>
<path d="M6.22587 15.4668L4.36942 15.8955C3.8764 16.0091 3.41478 15.6119 3.45341 15.1074L3.58036 13.4482L6.22587 15.4668Z" fill="#272730"/>
</svg>
