<svg xmlns="http://www.w3.org/2000/svg" width="20" height="20" viewBox="0 0 20 20" fill="none">
  <path d="M3.33325 3.84301C3.33325 3.05904 3.88007 2.3771 4.65016 2.2302C8.6848 1.46055 11.3906 1.51523 15.3312 2.23948C16.1097 2.38258 16.6666 3.06824 16.6666 3.85982V14.9999C16.6666 15.9204 15.9204 16.6665 14.9999 16.6665H4.99992C4.07944 16.6665 3.33325 15.9204 3.33325 14.9999V3.84301Z" fill="#00B140"/>
  <path d="M5 9.83386C5 10.6719 5.62244 11.3836 6.45602 11.4702C9.07266 11.7419 10.9733 11.7236 13.532 11.4643C14.3705 11.3793 15 10.6656 15 9.82285V6.6665C15 5.74603 14.2538 4.99984 13.3333 4.99984H6.66667C5.74619 4.99984 5 5.74603 5 6.6665V9.83386Z" fill="white"/>
  <path d="M5 16.6665H7.5V17.3332C7.5 17.8855 7.05228 18.3332 6.5 18.3332H6C5.44772 18.3332 5 17.8855 5 17.3332V16.6665Z" fill="#00B140"/>
  <path d="M17.5977 7.5C18.018 7.5 18.3725 7.18705 18.4246 6.77003L18.6329 5.10336C18.6951 4.60598 18.3073 4.16667 17.806 4.16667L17.5 4.16667C17.2699 4.16667 17.0833 4.35321 17.0833 4.58333L17.0833 7.08333C17.0833 7.31345 17.2699 7.5 17.5 7.5L17.5977 7.5Z" fill="#49495A"/>
  <path d="M2.40232 7.5C1.98205 7.5 1.62755 7.18705 1.57542 6.77003L1.36709 5.10336C1.30491 4.60598 1.69274 4.16667 2.19399 4.16667L2.5 4.16667C2.73012 4.16667 2.91667 4.35321 2.91667 4.58333L2.91667 7.08333C2.91667 7.31345 2.73012 7.5 2.5 7.5L2.40232 7.5Z" fill="#49495A"/>
  <path d="M12.5 16.6665H15V17.3332C15 17.8855 14.5523 18.3332 14 18.3332H13.5C12.9477 18.3332 12.5 17.8855 12.5 17.3332V16.6665Z" fill="#00B140"/>
  <circle cx="5.83333" cy="13.3333" r="0.833333" fill="white"/>
  <circle cx="14.1666" cy="13.3333" r="0.833333" fill="white"/>
  <g style="mix-blend-mode:darken" opacity="0.3">
    <rect x="7.5" y="13.75" width="5" height="1.66667" rx="0.5" fill="#1C1C22"/>
  </g>
  <g style="mix-blend-mode:darken" opacity="0.3">
    <rect x="8.33325" y="2.5" width="3.33333" height="0.833333" rx="0.416667" fill="#1C1C22"/>
  </g>
</svg>