<svg xmlns="http://www.w3.org/2000/svg" width="20" height="20" viewBox="0 0 20 20" fill="none">
  <path d="M3.5 4.03543C3.5 3.21225 4.07416 2.49623 4.88275 2.34198C9.11912 1.53384 11.9602 1.59126 16.0978 2.35173C16.9153 2.50197 17.5 3.22192 17.5 4.05308V15.7501C17.5 16.7166 16.7165 17.5001 15.75 17.5001H5.25C4.2835 17.5001 3.5 16.7166 3.5 15.7501V4.03543Z" fill="#00B140"/>
  <path d="M5.25 10.3257C5.25 11.2057 5.90356 11.9529 6.77882 12.0438C9.52629 12.3292 11.5219 12.3099 14.2086 12.0377C15.089 11.9485 15.75 11.1991 15.75 10.3142V7C15.75 6.0335 14.9665 5.25 14 5.25H7C6.0335 5.25 5.25 6.0335 5.25 7V10.3257Z" fill="white"/>
  <path d="M5.25 17.5H7.875V18.2C7.875 18.7799 7.4049 19.25 6.825 19.25H6.3C5.7201 19.25 5.25 18.7799 5.25 18.2V17.5Z" fill="#49495A"/>
  <path d="M18.4776 7.875C18.9188 7.875 19.2911 7.54641 19.3458 7.10853L19.5646 5.35853C19.6298 4.83628 19.2226 4.375 18.6963 4.375L18.375 4.375C18.1334 4.375 17.9375 4.57088 17.9375 4.8125L17.9375 7.4375C17.9375 7.67912 18.1334 7.875 18.375 7.875L18.4776 7.875Z" fill="#49495A"/>
  <path d="M2.52243 7.875C2.08115 7.875 1.70893 7.54641 1.65419 7.10853L1.43544 5.35853C1.37016 4.83628 1.77737 4.375 2.30368 4.375L2.625 4.375C2.86662 4.375 3.0625 4.57088 3.0625 4.8125L3.0625 7.4375C3.0625 7.67912 2.86662 7.875 2.625 7.875L2.52243 7.875Z" fill="#49495A"/>
  <path d="M13.125 17.5H15.75V18.2C15.75 18.7799 15.2799 19.25 14.7 19.25H14.175C13.5951 19.25 13.125 18.7799 13.125 18.2V17.5Z" fill="#49495A"/>
  <circle cx="6.125" cy="14" r="0.875" fill="white"/>
  <circle cx="14.875" cy="14" r="0.875" fill="white"/>
  <g style="mix-blend-mode:darken" opacity="0.3">
    <rect x="7.875" y="14.4375" width="5.25" height="1.75" rx="0.525" fill="#1C1C22"/>
  </g>
  <g style="mix-blend-mode:darken" opacity="0.3">
    <rect x="8.75" y="2.625" width="3.5" height="0.875" rx="0.4375" fill="#1C1C22"/>
  </g>
</svg>