<svg width="16" height="16" viewBox="0 0 16 16" fill="none" xmlns="http://www.w3.org/2000/svg">
<g clip-path="url(#clip0_1371_5020)">
<rect width="16" height="16" rx="5" fill="#1C1C22"/>
<path fill-rule="evenodd" clip-rule="evenodd" d="M11.5355 10.6215C11.5288 10.6276 11.522 10.6336 11.5152 10.6396L8.41628 13.4067C8.17915 13.6184 7.82085 13.6184 7.58372 13.4067L4.48496 10.6397C4.47811 10.6337 4.47128 10.6276 4.46447 10.6215C2.51184 8.878 2.51184 6.05118 4.46447 4.30765C6.41709 2.56412 9.58291 2.56412 11.5355 4.30765C13.4882 6.05118 13.4882 8.878 11.5355 10.6215ZM6.5484 8.76079C7.3501 9.47664 8.6499 9.47664 9.4516 8.76079C10.2533 8.04495 10.2533 6.88433 9.4516 6.16848C8.6499 5.45263 7.3501 5.45263 6.5484 6.16848C5.74671 6.88433 5.74671 8.04495 6.5484 8.76079Z" fill="white"/>
</g>
<defs>
<clipPath id="clip0_1371_5020">
<rect width="16" height="16" fill="white"/>
</clipPath>
</defs>
</svg>
