<svg width="160" height="160" viewBox="0 0 160 160" fill="none" xmlns="http://www.w3.org/2000/svg">
<g clip-path="url(#clip0_1327_11867)">
<rect x="17" y="84" width="72" height="134.326" rx="14.6047" fill="#E6F2FF" stroke="url(#paint0_linear_1327_11867)" stroke-width="8"/>
<path d="M41 88H65.186C65.186 91.0825 62.6872 93.5814 59.6047 93.5814H46.5814C43.4989 93.5814 41 91.0825 41 88Z" fill="#CAE3FF"/>
<path d="M78.9365 67.7197C77.3734 69.0224 75.0001 67.9107 75 65.876V29C75 22.3726 80.3726 17 87 17H130C136.627 17 142 22.3726 142 29V49C142 55.6274 136.627 61 130 61H87L78.9365 67.7197Z" fill="#E6F2FF"/>
<path d="M104 41C99.7507 41 96.1892 42.4832 95.2451 46.0193C94.9601 47.0865 95.8954 48 97 48H111C112.105 48 113.04 47.0865 112.755 46.0193C111.811 42.4832 108.249 41 104 41Z" fill="#007AFF"/>
<path d="M109 35C109 37.7614 106.761 39.5 104 39.5C101.239 39.5 99 37.7614 99 35C99 32.2386 101.239 30 104 30C106.761 30 109 32.2386 109 35Z" fill="#007AFF"/>
<g clip-path="url(#clip1_1327_11867)">
<path d="M118 31L118 39" stroke="#007AFF" stroke-width="2.52632" stroke-linecap="round" stroke-linejoin="round"/>
<path d="M122 35L114 35" stroke="#007AFF" stroke-width="2.52632" stroke-linecap="round" stroke-linejoin="round"/>
</g>
<rect x="13" y="109" width="80" height="51" fill="url(#paint1_linear_1327_11867)"/>
</g>
<defs>
<linearGradient id="paint0_linear_1327_11867" x1="53" y1="95.5" x2="53" y2="151" gradientUnits="userSpaceOnUse">
<stop stop-color="#CAE3FF"/>
<stop offset="1" stop-color="#E6F2FF"/>
</linearGradient>
<linearGradient id="paint1_linear_1327_11867" x1="53" y1="109" x2="53" y2="160" gradientUnits="userSpaceOnUse">
<stop stop-color="white" stop-opacity="0"/>
<stop offset="0.8" stop-color="white"/>
</linearGradient>
<clipPath id="clip0_1327_11867">
<rect width="160" height="160" fill="white"/>
</clipPath>
<clipPath id="clip1_1327_11867">
<rect width="12" height="12" fill="white" transform="translate(112 29)"/>
</clipPath>
</defs>
</svg>