<svg width="32" height="32" viewBox="0 0 32 32" fill="none" xmlns="http://www.w3.org/2000/svg">
<circle cx="16" cy="16" r="6.875" fill="#606076"/>
<path d="M16.0059 24.75C16.6961 24.7496 17.2563 25.3088 17.2568 25.999C17.2573 26.6892 16.698 27.2493 16.0078 27.25H15.9922C15.302 27.2493 14.7427 26.6892 14.7432 25.999C14.7437 25.3088 15.3039 24.7496 15.9941 24.75H16.0059ZM8.04102 22.1816C8.49902 21.7244 9.22322 21.6968 9.71387 22.0977L9.80859 22.1836L9.81641 22.1914L9.90234 22.2861C10.3032 22.7768 10.2756 23.501 9.81836 23.959C9.36106 24.4169 8.63673 24.4459 8.14551 24.0459L8.0498 23.96L8.04004 23.9502L7.9541 23.8545C7.55412 23.3633 7.58312 22.6389 8.04102 22.1816ZM22.2861 22.0977C22.7768 21.6968 23.501 21.7244 23.959 22.1816C24.4475 22.6695 24.4478 23.4617 23.96 23.9502L23.9502 23.96L23.8545 24.0459C23.3633 24.4459 22.6389 24.4169 22.1816 23.959C21.694 23.4705 21.6952 22.6792 22.1836 22.1914L22.1914 22.1836L22.2861 22.0977ZM4.75 15.9922C4.75068 15.302 5.31077 14.7427 6.00098 14.7432C6.69122 14.7437 7.2504 15.3039 7.25 15.9941V16.0059L7.24316 16.1338C7.17944 16.764 6.64802 17.2563 6.00098 17.2568C5.35364 17.2573 4.82108 16.7652 4.75684 16.1348L4.75 16.0078V15.9922ZM24.75 15.9941L24.7568 15.8662C24.8206 15.236 25.352 14.7437 25.999 14.7432C26.6464 14.7427 27.1789 15.2348 27.2432 15.8652L27.25 15.9922V16.0078C27.2493 16.698 26.6892 17.2573 25.999 17.2568C25.3088 17.2563 24.7496 16.6961 24.75 16.0059V15.9941ZM8.14551 7.9541C8.63673 7.55412 9.36106 7.58312 9.81836 8.04102C10.306 8.5295 10.3048 9.32082 9.81641 9.80859L9.80859 9.81641L9.71387 9.90234C9.22322 10.3032 8.49902 10.2756 8.04102 9.81836C7.55254 9.33052 7.5522 8.53828 8.04004 8.0498L8.0498 8.04004L8.14551 7.9541ZM22.1816 8.04102C22.6389 7.58312 23.3633 7.55412 23.8545 7.9541L23.9502 8.04004L23.96 8.0498L24.0459 8.14551C24.4459 8.63673 24.4169 9.36106 23.959 9.81836C23.501 10.2756 22.7768 10.3032 22.2861 9.90234L22.1914 9.81641L22.1836 9.80859L22.0977 9.71387C21.6968 9.22322 21.7244 8.49902 22.1816 8.04102ZM16.0078 4.75C16.698 4.75068 17.2573 5.31077 17.2568 6.00098C17.2563 6.69122 16.6961 7.2504 16.0059 7.25H15.9941C15.3039 7.25039 14.7437 6.69122 14.7432 6.00098C14.7427 5.31077 15.302 4.75068 15.9922 4.75H16.0078Z" fill="#606076"/>
</svg>
