<svg xmlns="http://www.w3.org/2000/svg" width="20" height="20" viewBox="0 0 20 20" fill="none">
  <path d="M2.5 13.9585H5.83333V15.4585C5.83333 16.0108 5.38562 16.4585 4.83333 16.4585H3.5C2.94771 16.4585 2.5 16.0108 2.5 15.4585V13.9585Z" fill="#9494A8"/>
  <path d="M14.1667 13.9585H17.5001V15.4585C17.5001 16.0108 17.0524 16.4585 16.5001 16.4585H15.1667C14.6145 16.4585 14.1667 16.0108 14.1667 15.4585V13.9585Z" fill="#9494A8"/>
  <path fill-rule="evenodd" clip-rule="evenodd" d="M15.951 4.97289C15.7522 4.3545 15.2114 3.90596 14.5657 3.83494C11.1012 3.45383 8.77644 3.4529 5.42848 3.83159C4.78568 3.9043 4.24853 4.35212 4.05057 4.96798L2.6599 9.29451C2.55395 9.62415 2.5 9.96829 2.5 10.3145V13.9587C2.5 14.4189 2.8731 14.792 3.33333 14.792H16.6667C17.1269 14.792 17.5 14.4189 17.5 13.9587V10.3145C17.5 9.96829 17.4461 9.62415 17.3401 9.29451L15.951 4.97289Z" fill="#CDCDD6"/>
  <path d="M5.45494 5.69434C5.55921 5.39641 5.82375 5.18234 6.13716 5.14479C9.07601 4.79274 10.9269 4.79053 13.8636 5.14444C14.1767 5.18217 14.4409 5.39617 14.545 5.69383L15.4454 8.26626C15.635 8.80807 15.2329 9.37488 14.6588 9.37488H5.34132C4.76728 9.37488 4.36513 8.80807 4.55477 8.26626L5.45494 5.69434Z" fill="white"/>
  <path d="M17.0325 7.37276C16.8573 6.93485 17.1889 6.4585 17.6606 6.4585C18.0288 6.4585 18.3334 6.75697 18.3334 7.12516V8.04492C18.3334 8.31936 18.1109 8.54183 17.8365 8.54183C17.6333 8.54183 17.4506 8.41812 17.3751 8.22947L17.0325 7.37276Z" fill="#787891"/>
  <path d="M2.96755 7.37276C3.14271 6.93485 2.81108 6.4585 2.33943 6.4585C1.97124 6.4585 1.66659 6.75697 1.66659 7.12516V8.04492C1.66659 8.31936 1.88906 8.54183 2.16349 8.54183C2.36668 8.54183 2.5494 8.41812 2.62486 8.22947L2.96755 7.37276Z" fill="#787891"/>
  <circle cx="5.00008" cy="12.2918" r="0.833333" fill="white"/>
  <circle cx="15.0001" cy="12.2918" r="0.833333" fill="white"/>
  <g style="mix-blend-mode:darken" opacity="0.3">
    <rect x="7.08325" y="11.4585" width="5.83333" height="1.66667" rx="0.5" fill="#1C1C22"/>
  </g>
</svg>