<svg width="96" height="96" viewBox="0 0 96 96" fill="none" xmlns="http://www.w3.org/2000/svg">
<path d="M24.7875 31.6813C25.5198 26.6827 30.353 23.3659 35.2806 24.4804L84.847 35.692L78.5688 76.1932C77.8244 80.9954 73.2795 84.2485 68.4938 83.4047L26.7966 76.0524C22.1769 75.2378 19.0425 70.8971 19.7225 66.2556L24.7875 31.6813Z" fill="url(#paint0_linear_1398_16944)"/>
<path d="M77.7414 25.9296C83.0503 26.8657 86.2276 32.3677 84.3846 37.4337L72.1074 71.1817C70.6685 75.1368 66.5973 77.4877 62.4526 76.7568L16.4138 68.639C11.242 67.7271 8.06088 62.4637 9.65839 57.4611L20.5171 23.463C21.8373 19.3295 26.0097 16.8081 30.2831 17.5614L77.7414 25.9296Z" fill="url(#paint1_linear_1398_16944)"/>
<path d="M20.4958 23.4478C21.8201 19.32 25.9893 16.8044 30.2585 17.5572L77.8127 25.9423C83.2304 26.8975 86.4006 32.5911 84.3594 37.6996L83.9979 38.6045L19.2934 27.1953L20.4958 23.4478Z" fill="url(#paint2_linear_1398_16944)"/>
<path d="M36.5248 47.2273L41.8886 55.6469L54.2838 46.3856" stroke="#007AFF" stroke-width="4.33576" stroke-linecap="round" stroke-linejoin="round"/>
<path d="M39.0226 14.6343C40.2966 14.9636 41.063 16.2631 40.734 17.5371L40.0203 20.2969C39.6908 21.5708 38.3907 22.3364 37.1167 22.0071C35.843 21.6777 35.0773 20.3783 35.4063 19.1045L36.12 16.3447C36.4494 15.0708 37.7486 14.3051 39.0226 14.6343ZM54.2469 17.3177C55.521 17.6471 56.2874 18.9474 55.9581 20.2215L55.2446 22.9803C54.9153 24.2544 53.6158 25.0208 52.3418 24.6917C51.0677 24.3624 50.3012 23.0621 50.6306 21.788L51.3441 19.0291C51.6734 17.7552 52.9729 16.9887 54.2469 17.3177ZM69.4709 20.0031C70.7447 20.3326 71.5105 21.6318 71.1813 22.9058L70.4677 25.6646C70.1384 26.9387 68.839 27.7052 67.5649 27.376C66.2908 27.0467 65.5244 25.7463 65.8537 24.4722L66.5673 21.7134C66.8966 20.4393 68.1967 19.6738 69.4709 20.0031Z" fill="url(#paint3_linear_1398_16944)"/>
<defs>
<linearGradient id="paint0_linear_1398_16944" x1="44.3162" y1="39.1796" x2="42.3743" y2="86.7656" gradientUnits="userSpaceOnUse">
<stop stop-color="#B4D1F0"/>
<stop offset="1" stop-color="#FCFDFE"/>
</linearGradient>
<linearGradient id="paint1_linear_1398_16944" x1="32.5736" y1="22.5649" x2="53.178" y2="83.7848" gradientUnits="userSpaceOnUse">
<stop stop-color="#D1E8FF"/>
<stop offset="1" stop-color="#FBFBFC"/>
</linearGradient>
<linearGradient id="paint2_linear_1398_16944" x1="37.6819" y1="35.0043" x2="31.3657" y2="6.88544" gradientUnits="userSpaceOnUse">
<stop stop-color="#007AFF"/>
<stop offset="1" stop-color="#DDEEFF"/>
</linearGradient>
<linearGradient id="paint3_linear_1398_16944" x1="36.6572" y1="14.2087" x2="69.9311" y2="27.7991" gradientUnits="userSpaceOnUse">
<stop stop-color="#CDCDD6"/>
<stop offset="1" stop-color="#9494A8"/>
</linearGradient>
</defs>
</svg>
