<svg width="18" height="18" viewBox="0 0 18 18" fill="none" xmlns="http://www.w3.org/2000/svg">
<path d="M11.1575 5.25C12.0151 5.25 12.6979 5.96773 12.6556 6.82422L12.6224 7.5H13.8753C14.7036 7.5002 15.3753 8.1717 15.3753 9V12C15.3753 12.8283 14.7036 13.4998 13.8753 13.5H12.3255L12.2474 15.0742C12.2078 15.8728 11.5489 16.5 10.7493 16.5H5.63408C4.83274 16.5 4.17228 15.8698 4.13506 15.0693L3.75127 6.81934C3.71172 5.96464 4.39463 5.25 5.25029 5.25H11.1575ZM12.3812 12.375H13.8685C14.0754 12.3748 14.2435 12.207 14.2435 12V9C14.2435 8.79304 14.0754 8.62523 13.8685 8.625H12.5667L12.3812 12.375Z" fill="#F0A13F"/>
<path d="M7.8877 1.5C9.11437 1.50008 10.141 2.22527 10.4258 3.20312C10.7327 3.07377 11.0733 3 11.4326 3C12.7759 3.0001 13.8652 4.00742 13.8652 5.25C13.8652 6.49258 12.7759 7.4999 11.4326 7.5C11.4009 7.5 11.3693 7.49623 11.3379 7.49512C11.3095 7.49671 11.2807 7.5 11.252 7.5H7.3916C7.13409 8.37365 6.44124 9 5.625 9C4.6669 9 3.87748 8.13758 3.76465 7.02441C3.29812 6.64042 3.00007 6.05843 3 5.40625C3 4.75062 3.30076 4.16521 3.77148 3.78125V3.75H3.81445C4.16753 3.47658 4.6091 3.3125 5.08984 3.3125C5.16607 3.31251 5.24132 3.31624 5.31543 3.32422C5.54719 2.28523 6.6105 1.5 7.8877 1.5Z" fill="#FFECCB"/>
<path d="M6.75 10.5L6.75 14.25" stroke="#F8CD98" stroke-width="1.125" stroke-linecap="round"/>
<path d="M9.75 11.25L9.75 14.25" stroke="#F8CD98" stroke-width="1.125" stroke-linecap="round"/>
</svg>
