<svg width="160" height="160" viewBox="0 0 160 160" fill="none" xmlns="http://www.w3.org/2000/svg">
<path d="M131.607 41.583C136.079 41.5832 139.704 45.2082 139.704 49.6797V64.8613C139.704 69.3327 136.079 72.9578 131.607 72.958H126.575L126.844 79.6523C126.879 80.5619 125.789 81.0525 125.132 80.4229L117.355 72.958H111.167V72.4121C111.167 66.1893 106.122 61.1448 99.8992 61.1445H75.9422V49.6797C75.9423 45.208 79.5672 41.583 84.0389 41.583H131.607Z" fill="url(#paint0_linear_1392_14072)"/>
<path d="M97.7619 63.4004C103.985 63.4004 109.03 68.445 109.03 74.668V95.7949C109.03 102.018 103.985 107.063 97.7619 107.063H52.5432L41.1281 118.021C40.2133 118.9 38.6946 118.216 38.7453 116.949L39.1408 107.063H31.5637C25.3407 107.063 20.2961 102.018 20.2961 95.7949V74.668C20.2962 68.4451 25.3408 63.4005 31.5637 63.4004H97.7619Z" fill="url(#paint1_linear_1392_14072)"/>
<circle cx="48.8933" cy="85.9361" r="2.81696" fill="#B0B0BF"/>
<circle cx="64.3489" cy="85.9361" r="2.81696" fill="#B0B0BF"/>
<circle cx="79.8035" cy="85.9361" r="2.81696" fill="#B0B0BF"/>
<defs>
<linearGradient id="paint0_linear_1392_14072" x1="107.823" y1="41.583" x2="128.209" y2="104.893" gradientUnits="userSpaceOnUse">
<stop stop-color="#F0F0F0"/>
<stop offset="0.716346" stop-color="#F9F9FA"/>
</linearGradient>
<linearGradient id="paint1_linear_1392_14072" x1="31.8575" y1="11.1678" x2="80.9372" y2="118.417" gradientUnits="userSpaceOnUse">
<stop offset="0.384615" stop-color="#DDDDDF"/>
<stop offset="0.990385" stop-color="#F8F8F8"/>
</linearGradient>
</defs>
</svg>
