<svg xmlns="http://www.w3.org/2000/svg" width="160" height="160" viewBox="0 0 160 160" fill="none">
  <g clip-path="url(#clip0_1376_13966)">
    <ellipse cx="80" cy="158.5" rx="104" ry="52.5" stroke="url(#paint0_linear_1376_13966)" stroke-width="3" stroke-linecap="round" stroke-dasharray="4 8"/>
    <path fill-rule="evenodd" clip-rule="evenodd" d="M83.8786 120.481C93.0973 115.115 118 98.4014 118 74.4406C118 54.8673 101.211 39 80.5 39C59.7893 39 43 54.8673 43 74.4406C43 97.6014 67.9713 114.854 77.1593 120.419C79.2348 121.675 81.7816 121.702 83.8786 120.481ZM80.5 89C88.5542 89 95.0833 83.5312 95.0833 74.4167C95.0833 65.3021 88.5542 59.8333 80.5 59.8333C72.4458 59.8333 65.9167 65.3021 65.9167 74.4167C65.9167 83.5312 72.4458 89 80.5 89Z" fill="white"/>
    <path d="M83.8786 120.481L83.124 119.185L83.8786 120.481ZM77.1593 120.419L76.3823 121.702L76.3823 121.702L77.1593 120.419ZM119.444 72.4468C119.398 71.6197 118.689 70.9868 117.862 71.0333C117.035 71.0798 116.402 71.788 116.449 72.6151L119.444 72.4468ZM115.219 65.4346C115.451 66.23 116.283 66.6871 117.079 66.4555C117.874 66.2239 118.331 65.3913 118.1 64.5959L115.219 65.4346ZM116.77 60.8367C116.45 60.0725 115.572 59.7121 114.808 60.0318C114.043 60.3515 113.683 61.2303 114.003 61.9945L116.77 60.8367ZM110.46 55.6169C110.939 56.2929 111.875 56.4527 112.551 55.9738C113.227 55.495 113.387 54.5588 112.908 53.8828L110.46 55.6169ZM110.438 50.764C109.89 50.1428 108.942 50.0836 108.321 50.6317C107.7 51.1798 107.64 52.1277 108.189 52.7489L110.438 50.764ZM102.803 47.797C103.467 48.292 104.407 48.1548 104.902 47.4905C105.397 46.8262 105.26 45.8864 104.596 45.3915L102.803 47.797ZM101.295 43.1837C100.584 42.7584 99.6633 42.9901 99.2381 43.7011C98.8129 44.412 99.0446 45.3331 99.7555 45.7583L101.295 43.1837ZM93.1206 42.644C93.9018 42.9198 94.7586 42.5101 95.0344 41.7289C95.3101 40.9477 94.9004 40.0909 94.1192 39.8151L93.1206 42.644ZM90.318 38.6807C89.5135 38.483 88.7011 38.975 88.5035 39.7795C88.3059 40.5841 88.7979 41.3964 89.6024 41.5941L90.318 38.6807ZM82.3386 40.5435C83.1661 40.5827 83.8687 39.9437 83.9079 39.1162C83.9472 38.2887 83.3081 37.5861 82.4806 37.5468L82.3386 40.5435ZM78.5194 37.5468C77.6919 37.5861 77.0528 38.2887 77.0921 39.1162C77.1313 39.9437 77.8339 40.5827 78.6614 40.5435L78.5194 37.5468ZM71.3976 41.5941C72.2021 41.3964 72.6941 40.5841 72.4965 39.7795C72.2989 38.975 71.4865 38.483 70.682 38.6807L71.3976 41.5941ZM66.8808 39.8151C66.0996 40.0909 65.6899 40.9477 65.9656 41.7289C66.2414 42.5101 67.0982 42.9198 67.8794 42.644L66.8808 39.8151ZM61.2445 45.7583C61.9554 45.3331 62.1871 44.412 61.7619 43.7011C61.3367 42.9901 60.4156 42.7584 59.7046 43.1837L61.2445 45.7583ZM56.4043 45.3915C55.7401 45.8864 55.6028 46.8262 56.0978 47.4905C56.5928 48.1548 57.5326 48.292 58.1969 47.797L56.4043 45.3915ZM52.8114 52.7489C53.3595 52.1277 53.3003 51.1798 52.6791 50.6317C52.0579 50.0836 51.11 50.1428 50.5619 50.764L52.8114 52.7489ZM48.0919 53.8828C47.613 54.5588 47.7728 55.495 48.4488 55.9739C49.1249 56.4527 50.0611 56.2929 50.5399 55.6169L48.0919 53.8828ZM46.9974 61.9945C47.3171 61.2303 46.9567 60.3515 46.1925 60.0318C45.4282 59.7121 44.5495 60.0725 44.2298 60.8367L46.9974 61.9945ZM42.9005 64.5959C42.6689 65.3913 43.1259 66.2239 43.9213 66.4555C44.7167 66.6871 45.5492 66.23 45.7808 65.4346L42.9005 64.5959ZM44.5511 72.6151C44.5976 71.788 43.9648 71.0798 43.1377 71.0333C42.3105 70.9869 41.6023 71.6197 41.5559 72.4468L44.5511 72.6151ZM41.5643 76.5235C41.6153 77.3504 42.3269 77.9793 43.1538 77.9283C43.9806 77.8773 44.6096 77.1656 44.5586 76.3388L41.5643 76.5235ZM45.9228 83.8114C45.6825 83.0186 44.845 82.5707 44.0522 82.811C43.2594 83.0513 42.8115 83.8889 43.0518 84.6817L45.9228 83.8114ZM44.4551 88.5688C44.7753 89.3328 45.6542 89.6927 46.4183 89.3725C47.1823 89.0523 47.5422 88.1734 47.222 87.4093L44.4551 88.5688ZM50.8202 94.2107C50.3738 93.5128 49.4462 93.3089 48.7483 93.7552C48.0504 94.2016 47.8465 95.1292 48.2929 95.8271L50.8202 94.2107ZM50.6184 99.1882C51.1132 99.8526 52.0529 99.9902 52.7174 99.4954C53.3818 99.0007 53.5194 98.0609 53.0246 97.3965L50.6184 99.1882ZM58.0465 103.34C57.4769 102.739 56.5275 102.713 55.926 103.283C55.3245 103.852 55.2986 104.802 55.8682 105.403L58.0465 103.34ZM58.7302 108.277C59.329 108.849 60.2785 108.828 60.851 108.229C61.4236 107.63 61.4023 106.681 60.8036 106.108L58.7302 108.277ZM66.6997 111.267C66.054 110.748 65.1098 110.85 64.5909 111.496C64.0719 112.142 64.1747 113.086 64.8204 113.605L66.6997 111.267ZM68.0167 116.073C68.6819 116.567 69.6214 116.428 70.1152 115.763C70.609 115.098 70.47 114.158 69.8048 113.665L68.0167 116.073ZM76.277 118.108C75.577 117.664 74.6504 117.873 74.2072 118.573C73.7641 119.272 73.9723 120.199 74.6722 120.642L76.277 118.108ZM77.672 122.336C78.4446 122.635 79.3133 122.251 79.6122 121.478C79.9112 120.706 79.5272 119.837 78.7546 119.538L77.672 122.336ZM82.3 119.572C81.5221 119.857 81.1223 120.718 81.407 121.496C81.6918 122.274 82.5532 122.674 83.3312 122.389L82.3 119.572ZM86.3679 120.742C87.0748 120.311 87.2978 119.387 86.8659 118.68C86.434 117.973 85.5108 117.751 84.8039 118.182L86.3679 120.742ZM91.3457 113.819C90.6752 114.306 90.5261 115.244 91.0126 115.914C91.4991 116.585 92.4371 116.734 93.1076 116.247L91.3457 113.819ZM96.3403 113.799C96.9903 113.286 97.1007 112.342 96.587 111.693C96.0733 111.043 95.13 110.932 94.4801 111.446L96.3403 113.799ZM100.414 106.31C99.814 106.881 99.7905 107.83 100.362 108.43C100.933 109.031 101.882 109.054 102.482 108.483L100.414 106.31ZM105.358 105.601C105.927 104.999 105.9 104.049 105.298 103.48C104.696 102.911 103.747 102.938 103.178 103.54L105.358 105.601ZM108.183 97.5674C107.693 98.2353 107.838 99.1741 108.506 99.6641C109.174 100.154 110.112 100.01 110.602 99.3419L108.183 97.5674ZM112.907 95.9484C113.347 95.2461 113.134 94.3206 112.431 93.8813C111.729 93.4419 110.803 93.6551 110.364 94.3574L112.907 95.9484ZM113.887 87.4984C113.577 88.2666 113.949 89.1407 114.717 89.4506C115.485 89.7605 116.359 89.389 116.669 88.6207L113.887 87.4984ZM118.024 84.706C118.255 83.9102 117.796 83.0784 117 82.8482C116.205 82.6179 115.373 83.0764 115.143 83.8721L118.024 84.706ZM116.445 76.3508C116.397 77.1779 117.028 77.8871 117.856 77.935C118.683 77.9829 119.392 77.3513 119.44 76.5242L116.445 76.3508ZM96.4734 72.329C96.3848 71.5053 95.6453 70.9094 94.8216 70.9979C93.9979 71.0865 93.402 71.826 93.4905 72.6497L96.4734 72.329ZM91.0794 66.2589C91.5749 66.9228 92.5148 67.0593 93.1787 66.5637C93.8426 66.0682 93.979 65.1283 93.4835 64.4644L91.0794 66.2589ZM90.4441 61.4461C89.7773 60.9545 88.8383 61.0966 88.3467 61.7634C87.8551 62.4303 87.9972 63.3693 88.664 63.8609L90.4441 61.4461ZM82.2582 61.4308C83.0814 61.5234 83.8239 60.9311 83.9165 60.1079C84.0091 59.2846 83.4168 58.5422 82.5936 58.4496L82.2582 61.4308ZM78.4064 58.4496C77.5831 58.5422 76.9909 59.2846 77.0835 60.1079C77.1761 60.9311 77.9186 61.5234 78.7418 61.4308L78.4064 58.4496ZM72.336 63.8609C73.0028 63.3693 73.1449 62.4303 72.6533 61.7634C72.1617 61.0966 71.2227 60.9545 70.5559 61.4461L72.336 63.8609ZM67.5165 64.4644C67.021 65.1283 67.1574 66.0682 67.8213 66.5637C68.4852 67.0593 69.4251 66.9228 69.9206 66.2589L67.5165 64.4644ZM67.5095 72.6497C67.598 71.826 67.0021 71.0865 66.1784 70.9979C65.3547 70.9094 64.6152 71.5053 64.5266 72.329L67.5095 72.6497ZM64.5266 76.5044C64.6152 77.328 65.3547 77.924 66.1784 77.8354C67.0021 77.7469 67.598 77.0074 67.5095 76.1837L64.5266 76.5044ZM69.9206 82.5744C69.4251 81.9105 68.4852 81.7741 67.8213 82.2696C67.1574 82.7652 67.021 83.7051 67.5165 84.3689L69.9206 82.5744ZM70.5559 87.3872C71.2227 87.8788 72.1617 87.7367 72.6533 87.0699C73.1449 86.4031 73.0028 85.464 72.336 84.9725L70.5559 87.3872ZM78.7418 87.4026C77.9186 87.31 77.1761 87.9022 77.0835 88.7255C76.9909 89.5487 77.5832 90.2911 78.4064 90.3838L78.7418 87.4026ZM82.5936 90.3838C83.4169 90.2911 84.0091 89.5487 83.9165 88.7255C83.8239 87.9022 83.0814 87.31 82.2582 87.4026L82.5936 90.3838ZM88.664 84.9725C87.9972 85.464 87.8551 86.4031 88.3467 87.0699C88.8383 87.7367 89.7773 87.8788 90.4441 87.3872L88.664 84.9725ZM93.4835 84.3689C93.979 83.7051 93.8426 82.7652 93.1787 82.2696C92.5148 81.7741 91.5749 81.9105 91.0794 82.5744L93.4835 84.3689ZM93.4905 76.1837C93.402 77.0074 93.9979 77.7469 94.8216 77.8354C95.6453 77.924 96.3848 77.328 96.4734 76.5044L93.4905 76.1837ZM118 74.4406H119.5C119.5 73.7719 119.481 73.1071 119.444 72.4468L117.946 72.5309L116.449 72.6151C116.483 73.2194 116.5 73.828 116.5 74.4406H118ZM116.659 65.0153L118.1 64.5959C117.726 63.3133 117.282 62.0589 116.77 60.8367L115.386 61.4156L114.003 61.9945C114.471 63.1136 114.878 64.2615 115.219 65.4346L116.659 65.0153ZM111.684 54.7498L112.908 53.8828C112.142 52.801 111.317 51.76 110.438 50.764L109.313 51.7564L108.189 52.7489C108.998 53.6657 109.756 54.6229 110.46 55.6169L111.684 54.7498ZM103.699 46.5942L104.596 45.3915C103.538 44.6034 102.437 43.8662 101.295 43.1837L100.525 44.471L99.7555 45.7583C100.81 46.3889 101.827 47.0697 102.803 47.797L103.699 46.5942ZM93.6199 41.2296L94.1192 39.8151C92.8806 39.3779 91.6123 38.9986 90.318 38.6807L89.9602 40.1374L89.6024 41.5941C90.8007 41.8884 91.9746 42.2395 93.1206 42.644L93.6199 41.2296ZM82.4096 39.0452L82.4806 37.5468C81.8245 37.5157 81.1641 37.5 80.5 37.5V39V40.5C81.1167 40.5 81.7297 40.5146 82.3386 40.5435L82.4096 39.0452ZM80.5 39V37.5C79.8359 37.5 79.1755 37.5157 78.5194 37.5468L78.5904 39.0452L78.6614 40.5435C79.2703 40.5146 79.8833 40.5 80.5 40.5V39ZM71.0398 40.1374L70.682 38.6807C69.3877 38.9986 68.1194 39.3779 66.8808 39.8151L67.3801 41.2296L67.8794 42.644C69.0254 42.2395 70.1993 41.8884 71.3976 41.5941L71.0398 40.1374ZM60.4745 44.471L59.7046 43.1837C58.5633 43.8662 57.4619 44.6034 56.4043 45.3915L57.3006 46.5942L58.1969 47.797C59.1729 47.0697 60.19 46.3889 61.2445 45.7583L60.4745 44.471ZM51.6867 51.7564L50.5619 50.764C49.683 51.76 48.8582 52.801 48.0919 53.8828L49.3159 54.7498L50.5399 55.6169C51.244 54.6229 52.0024 53.6657 52.8114 52.7489L51.6867 51.7564ZM45.6136 61.4156L44.2298 60.8367C43.7185 62.0589 43.2739 63.3133 42.9005 64.5959L44.3406 65.0153L45.7808 65.4346C46.1224 64.2615 46.5292 63.1136 46.9974 61.9945L45.6136 61.4156ZM43.0535 72.531L41.5559 72.4468C41.5188 73.1071 41.5 73.7719 41.5 74.4406H43H44.5C44.5 73.828 44.5172 73.2194 44.5511 72.6151L43.0535 72.531ZM43 74.4406H41.5C41.5 75.1402 41.5218 75.8346 41.5643 76.5235L43.0614 76.4311L44.5586 76.3388C44.5198 75.7107 44.5 75.0779 44.5 74.4406H43ZM44.4873 84.2465L43.0518 84.6817C43.4531 86.0054 43.9241 87.3015 44.4551 88.5688L45.8386 87.989L47.222 87.4093C46.7284 86.2314 46.2928 85.0317 45.9228 83.8114L44.4873 84.2465ZM49.5565 95.0189L48.2929 95.8271C49.0293 96.9785 49.8076 98.0992 50.6184 99.1882L51.8215 98.2923L53.0246 97.3965C52.2534 96.3607 51.5158 95.2983 50.8202 94.2107L49.5565 95.0189ZM56.9574 104.372L55.8682 105.403C56.8095 106.397 57.7669 107.355 58.7302 108.277L59.7669 107.193L60.8036 106.108C59.8737 105.219 58.9515 104.296 58.0465 103.34L56.9574 104.372ZM65.7601 112.436L64.8204 113.605C65.91 114.481 66.9805 115.304 68.0167 116.073L68.9108 114.869L69.8048 113.665C68.7973 112.917 67.7574 112.117 66.6997 111.267L65.7601 112.436ZM75.4746 119.375L74.6722 120.642C75.2873 121.032 75.8597 121.385 76.3823 121.702L77.1593 120.419L77.9364 119.135C77.43 118.829 76.8745 118.486 76.277 118.108L75.4746 119.375ZM77.1593 120.419L76.3823 121.702C76.7973 121.953 77.2289 122.165 77.672 122.336L78.2133 120.937L78.7546 119.538C78.4752 119.43 78.2014 119.296 77.9364 119.135L77.1593 120.419ZM82.8156 120.981L83.3312 122.389C83.7778 122.226 84.2134 122.022 84.6332 121.777L83.8786 120.481L83.124 119.185C82.8566 119.34 82.5809 119.469 82.3 119.572L82.8156 120.981ZM83.8786 120.481L84.6332 121.777C85.1634 121.469 85.7441 121.124 86.3679 120.742L85.5859 119.462L84.8039 118.182C84.199 118.552 83.6366 118.886 83.124 119.185L83.8786 120.481ZM92.2266 115.033L93.1076 116.247C94.1562 115.486 95.2389 114.67 96.3403 113.799L95.4102 112.623L94.4801 111.446C93.4131 112.289 92.3632 113.081 91.3457 113.819L92.2266 115.033ZM101.448 107.396L102.482 108.483C103.451 107.561 104.413 106.6 105.358 105.601L104.268 104.57L103.178 103.54C102.271 104.498 101.347 105.422 100.414 106.31L101.448 107.396ZM109.393 98.4546L110.602 99.3419C111.407 98.2448 112.179 97.1133 112.907 95.9484L111.636 95.1529L110.364 94.3574C109.677 95.4558 108.947 96.5261 108.183 97.5674L109.393 98.4546ZM115.278 88.0595L116.669 88.6207C117.183 87.3467 117.638 86.0415 118.024 84.706L116.584 84.2891L115.143 83.8721C114.786 85.1053 114.365 86.3143 113.887 87.4984L115.278 88.0595ZM117.942 76.4375L119.44 76.5242C119.48 75.8357 119.5 75.1411 119.5 74.4406H118H116.5C116.5 75.0828 116.481 75.7196 116.445 76.3508L117.942 76.4375ZM95.0833 74.4167H96.5833C96.5833 73.7027 96.5462 73.0065 96.4734 72.329L94.982 72.4893L93.4905 72.6497C93.5516 73.2177 93.5833 73.8068 93.5833 74.4167H95.0833ZM92.2814 65.3617L93.4835 64.4644C92.6161 63.3024 91.5922 62.2924 90.4441 61.4461L89.5541 62.6535L88.664 63.8609C89.579 64.5354 90.3916 65.3375 91.0794 66.2589L92.2814 65.3617ZM82.4259 59.9402L82.5936 58.4496C81.9068 58.3723 81.2079 58.3333 80.5 58.3333V59.8333V61.3333C81.0978 61.3333 81.6847 61.3662 82.2582 61.4308L82.4259 59.9402ZM80.5 59.8333V58.3333C79.7921 58.3333 79.0932 58.3723 78.4064 58.4496L78.5741 59.9402L78.7418 61.4308C79.3153 61.3662 79.9022 61.3333 80.5 61.3333V59.8333ZM71.4459 62.6535L70.5559 61.4461C69.4078 62.2924 68.3839 63.3024 67.5165 64.4644L68.7186 65.3617L69.9206 66.2589C70.6084 65.3375 71.421 64.5354 72.336 63.8609L71.4459 62.6535ZM66.0181 72.4893L64.5266 72.329C64.4538 73.0065 64.4167 73.7027 64.4167 74.4167H65.9167H67.4167C67.4167 73.8068 67.4484 73.2177 67.5095 72.6497L66.0181 72.4893ZM65.9167 74.4167H64.4167C64.4167 75.1306 64.4538 75.8269 64.5266 76.5044L66.0181 76.344L67.5095 76.1837C67.4484 75.6157 67.4167 75.0265 67.4167 74.4167H65.9167ZM68.7186 83.4717L67.5165 84.3689C68.3839 85.531 69.4078 86.541 70.5559 87.3872L71.4459 86.1798L72.336 84.9725C71.421 84.2979 70.6084 83.4959 69.9206 82.5744L68.7186 83.4717ZM78.5741 88.8932L78.4064 90.3838C79.0932 90.461 79.7921 90.5 80.5 90.5V89V87.5C79.9022 87.5 79.3153 87.4671 78.7418 87.4026L78.5741 88.8932ZM80.5 89V90.5C81.2079 90.5 81.9068 90.461 82.5936 90.3838L82.4259 88.8932L82.2582 87.4026C81.6847 87.4671 81.0978 87.5 80.5 87.5V89ZM89.5541 86.1798L90.4441 87.3872C91.5922 86.541 92.6161 85.531 93.4835 84.3689L92.2814 83.4717L91.0794 82.5744C90.3916 83.4959 89.579 84.2979 88.664 84.9725L89.5541 86.1798ZM94.982 76.344L96.4734 76.5044C96.5462 75.8269 96.5833 75.1306 96.5833 74.4167H95.0833H93.5833C93.5833 75.0265 93.5516 75.6157 93.4905 76.1837L94.982 76.344Z" fill="#CDCDD6"/>
  </g>
  <defs>
    <linearGradient id="paint0_linear_1376_13966" x1="184" y1="158.5" x2="-24" y2="158.5" gradientUnits="userSpaceOnUse">
      <stop offset="0.1" stop-color="#E9E9ED" stop-opacity="0"/>
      <stop offset="0.3" stop-color="#E9E9ED"/>
      <stop offset="0.7" stop-color="#E9E9ED"/>
      <stop offset="0.9" stop-color="#E9E9ED" stop-opacity="0"/>
    </linearGradient>
    <clipPath id="clip0_1376_13966">
      <rect width="160" height="160" fill="white"/>
    </clipPath>
  </defs>
</svg>