<svg width="32" height="32" viewBox="0 0 32 32" fill="none" xmlns="http://www.w3.org/2000/svg">
<path d="M11.3913 7.35489C12.0475 7.02912 12.6828 7.73465 12.4979 8.44357C12.3987 8.82358 12.3211 9.21355 12.2665 9.61235C11.5242 15.0383 15.321 20.0386 20.747 20.7809C21.4754 20.8806 22.196 20.8978 22.8996 20.8404C23.6298 20.7807 24.2146 21.528 23.7799 22.1177C21.6962 24.9442 18.1736 26.5735 14.4493 26.064C9.0234 25.3216 5.22658 20.3213 5.96888 14.8954C6.43158 11.5138 8.54846 8.7661 11.3913 7.35489Z" fill="#007AFF"/>
<path d="M20.3442 7.88697C20.6105 7.21166 21.5662 7.21166 21.8326 7.88697L22.3751 9.26256C22.4564 9.46874 22.6196 9.63195 22.8258 9.71326L24.2014 10.2558C24.8767 10.5221 24.8767 11.4779 24.2014 11.7442L22.8258 12.2867C22.6196 12.3681 22.4564 12.5313 22.3751 12.7374L21.8326 14.113C21.5662 14.7883 20.6105 14.7883 20.3442 14.113L19.8016 12.7374C19.7203 12.5313 19.5571 12.3681 19.3509 12.2867L17.9754 11.7442C17.3 11.4779 17.3 10.5221 17.9754 10.2558L19.3509 9.71326C19.5571 9.63195 19.7203 9.46874 19.8016 9.26256L20.3442 7.88697Z" fill="#007AFF"/>
</svg>
