<svg width="32" height="32" viewBox="0 0 32 32" fill="none" xmlns="http://www.w3.org/2000/svg">
<path d="M11.3913 7.35489C12.0475 7.0291 12.6829 7.73466 12.4979 8.4436C12.3987 8.82392 12.321 9.21421 12.2664 9.61329C11.5243 15.0391 15.321 20.0395 20.7469 20.7818C21.4752 20.8815 22.1958 20.8987 22.8994 20.8413C23.6296 20.7816 24.2144 21.5289 23.7796 22.1186C21.6959 24.9449 18.1733 26.5744 14.4492 26.0649C9.02344 25.3226 5.22673 20.3221 5.96878 14.8963C6.43143 11.5146 8.54836 8.76629 11.3913 7.35489Z" fill="#606076"/>
<path d="M20.3442 7.88697C20.6105 7.21166 21.5662 7.21166 21.8326 7.88697L22.3751 9.26256C22.4564 9.46874 22.6196 9.63195 22.8258 9.71326L24.2014 10.2558C24.8767 10.5221 24.8767 11.4779 24.2014 11.7442L22.8258 12.2867C22.6196 12.3681 22.4564 12.5313 22.3751 12.7374L21.8326 14.113C21.5662 14.7883 20.6105 14.7883 20.3442 14.113L19.8016 12.7374C19.7203 12.5313 19.5571 12.3681 19.3509 12.2867L17.9754 11.7442C17.3 11.4779 17.3 10.5221 17.9754 10.2558L19.3509 9.71326C19.5571 9.63195 19.7203 9.46874 19.8016 9.26256L20.3442 7.88697Z" fill="#606076"/>
</svg>
