<svg xmlns="http://www.w3.org/2000/svg" width="16" height="16" viewBox="0 0 16 16" fill="none">
  <path fill-rule="evenodd" clip-rule="evenodd" d="M3.33331 1.33325C2.22874 1.33325 1.33331 2.22868 1.33331 3.33325V12.6666C1.33331 13.7712 2.22874 14.6666 3.33331 14.6666H7.33331C8.43788 14.6666 9.33331 13.7712 9.33331 12.6666V11.3333C9.33331 10.9651 9.03484 10.6666 8.66665 10.6666C8.29846 10.6666 7.99998 10.9651 7.99998 11.3333V12.6666C7.99998 13.0348 7.7015 13.3333 7.33331 13.3333H3.33331C2.96512 13.3333 2.66665 13.0348 2.66665 12.6666V3.33325C2.66665 2.96506 2.96512 2.66659 3.33331 2.66659H7.33331C7.7015 2.66659 7.99998 2.96506 7.99998 3.33325V4.66659C7.99998 5.03478 8.29846 5.33325 8.66665 5.33325C9.03484 5.33325 9.33331 5.03478 9.33331 4.66659V3.33325C9.33331 2.22868 8.43788 1.33325 7.33331 1.33325H3.33331ZM12.4714 5.52851C12.211 5.26816 11.7889 5.26816 11.5286 5.52851C11.2682 5.78886 11.2682 6.21097 11.5286 6.47132L12.3905 7.33325H5.33331C4.96512 7.33325 4.66665 7.63173 4.66665 7.99992C4.66665 8.36811 4.96512 8.66659 5.33331 8.66659H12.3905L11.5286 9.52851C11.2682 9.78886 11.2682 10.211 11.5286 10.4713C11.7889 10.7317 12.211 10.7317 12.4714 10.4713L14.4714 8.47132C14.7317 8.21097 14.7317 7.78886 14.4714 7.52851L12.4714 5.52851Z" fill="#606076"/>
</svg>