<svg width="174" height="48" viewBox="0 0 174 48" fill="none" xmlns="http://www.w3.org/2000/svg">
<path opacity="0.4" d="M106.585 47.9224C115.571 47.9224 122.856 44.6442 122.856 40.6004C122.856 36.5565 115.571 33.2783 106.585 33.2783C97.5983 33.2783 90.3135 36.5565 90.3135 40.6004C90.3135 44.6442 97.5983 47.9224 106.585 47.9224Z" fill="#007AFF"/>
<path opacity="0.8" d="M106.584 44.6678C111.976 44.6678 116.347 42.8466 116.347 40.6C116.347 38.3534 111.976 36.5322 106.584 36.5322C101.193 36.5322 96.8218 38.3534 96.8218 40.6C96.8218 42.8466 101.193 44.6678 106.584 44.6678Z" fill="#007AFF"/>
<path fill-rule="evenodd" clip-rule="evenodd" d="M119.863 29.3435C119.836 29.3668 119.81 29.39 119.784 29.413L107.853 40.0666C106.94 40.8818 105.561 40.8818 104.648 40.0666L92.7172 29.4136C92.6909 29.3903 92.6646 29.367 92.6383 29.3435C85.1206 22.6308 85.1206 11.7473 92.6383 5.03455C100.156 -1.67819 112.345 -1.67819 119.863 5.03455C127.38 11.7473 127.38 22.6308 119.863 29.3435ZM100.662 22.1795C103.748 24.9356 108.753 24.9356 111.839 22.1795C114.926 19.4235 114.926 14.955 111.839 12.1989C108.753 9.44285 103.748 9.44285 100.662 12.1989C97.5751 14.955 97.5751 19.4235 100.662 22.1795Z" fill="#1C1C22"/>
<path d="M1.26258 14.1635C1.26258 6.25628 8.39723 1.71191 20.8034 1.71191C33.4367 1.71191 40.3896 6.43806 40.3896 15.1178H28.2107C28.2107 11.9822 24.9387 10.4371 20.258 10.4371C15.7591 10.4371 13.3052 11.8913 13.3052 14.0272C13.3052 16.3448 16.4862 16.7992 20.258 17.0719C29.0287 17.7535 41.0258 17.5263 41.0258 27.6148C41.0258 36.5672 34.0729 40.9753 21.2124 40.9753C7.71558 40.9753 0.762695 36.1128 0.762695 27.3876H12.987C12.987 30.6141 16.0318 32.2501 21.9849 32.2501C26.711 32.2501 28.9378 31.2049 28.9378 29.1145C28.9378 26.3424 25.0751 25.9334 20.0763 25.6153C12.1236 25.1154 1.26258 24.8427 1.26258 14.1635Z" fill="#1C1C22"/>
<path d="M44.7456 40.9754V2.80273H70.5576C78.9193 2.80273 84.0998 7.7561 84.0998 15.8905C84.0998 24.2522 78.6466 29.9781 70.5576 29.9781H56.7427V40.9754H44.7456ZM56.7427 20.7075H67.013C70.285 20.7075 72.1027 19.2079 72.1027 16.6631C72.1027 14.0728 70.1941 12.6186 67.013 12.6186H56.7427V20.7075Z" fill="#1C1C22"/>
<path d="M145.153 40.9754V12.6186H129.157V2.80273H173.101V12.6186H157.15V40.9754H145.153Z" fill="#1C1C22"/>
</svg>
