<svg width="360" height="497" viewBox="0 0 360 497" fill="none" xmlns="http://www.w3.org/2000/svg">
<rect width="305.322" height="162.933" rx="30" transform="matrix(0.866025 0.5 -0.866025 0.5 162.816 208.308)" fill="url(#paint0_linear_1540_14112)"/>
<g filter="url(#filter0_d_1540_14112)">
<path d="M36.9161 248.434V229.156C36.9161 219.226 50.0883 215.743 54.9972 224.374C55.2366 224.795 55.5073 225.197 55.807 225.578L58.0981 228.486C62.9449 234.639 70.0058 238.652 77.7721 239.668L130.963 246.628C133.345 246.939 135.681 247.536 137.921 248.405L209.234 276.069L355.821 328.046C365.04 331.316 371.658 339.466 372.963 349.161C374.398 359.826 369.141 370.279 359.722 375.484L326.412 393.892C310.811 401.929 287.148 398.287 274.735 394.813C272.69 394.24 270.761 393.353 268.926 392.282L44.2435 261.192C39.7061 258.545 36.9161 253.687 36.9161 248.434Z" fill="url(#paint1_linear_1540_14112)"/>
<rect x="10.3923" width="172.371" height="316.008" rx="40.851" transform="matrix(0.866025 -0.5 0.866025 0.5 14.0674 230.203)" fill="#E6F2FF" stroke="white" stroke-width="12"/>
<path d="M85.8079 251.994L200.665 218.648L269.152 201.758L302.955 221.118L177.464 309.098L88.6258 257.81L85.8079 251.994Z" fill="#C2ECD8"/>
<path d="M76.7654 198.47L125.038 170.6C131.19 174.152 131.19 179.911 125.038 183.463L99.0449 198.47C92.8926 202.022 82.9177 202.022 76.7654 198.47Z" fill="white"/>
</g>
<path d="M270.442 197.824L79.1904 255.428" stroke="white" stroke-width="11" stroke-linecap="round"/>
<path d="M208.496 213.605L226.914 279.004" stroke="white" stroke-width="9.6121" stroke-linecap="round"/>
<path d="M115.585 226.649L135.283 216.433V245.674L115.585 256.521V226.649Z" fill="#8BB7E7"/>
<path d="M104.582 220.972L115.584 226.615L115.584 256.52L104.582 249.405L104.582 220.972Z" fill="#5496DF"/>
<path d="M104.673 221.007L124.027 211.454L135.295 216.438L115.673 227.095L104.673 221.007Z" fill="#BED5F0"/>
<path d="M135.684 240.484L155.382 230.269V251.559L135.684 262.406L135.684 240.484Z" fill="#8BB7E7"/>
<path d="M124.681 234.838L135.683 240.481L135.683 262.405L124.681 255.29L124.681 234.838Z" fill="#5496DF"/>
<path d="M124.772 234.826L144.126 225.274L155.394 230.257L135.772 240.915L124.772 234.826Z" fill="#BED5F0"/>
<path d="M256.155 353.434L286.978 303.111L359.521 330.362V340.874L320.809 362.665C289.839 373.945 264.802 361.211 256.155 353.434Z" fill="#DFE7FE"/>
<path d="M140.476 161.461L158.894 226.859" stroke="white" stroke-width="9.6121" stroke-linecap="round"/>
<circle cx="8.65126" cy="8.65126" r="8.65126" transform="matrix(0.951057 -0.309017 0 1 209.477 199.549)" fill="white"/>
<path fill-rule="evenodd" clip-rule="evenodd" d="M229.61 213.17C229.587 213.2 229.564 213.23 229.542 213.259L219.106 226.942C218.308 227.989 217.101 228.381 216.303 227.853L205.868 220.952C205.845 220.937 205.822 220.922 205.799 220.907C199.224 216.558 199.224 206.043 205.799 197.422C212.375 188.8 223.035 185.336 229.61 189.685C236.185 194.034 236.185 204.549 229.61 213.17ZM212.817 211.705C215.516 213.491 219.893 212.069 222.593 208.529C225.292 204.989 225.292 200.672 222.593 198.887C219.893 197.101 215.516 198.523 212.817 202.063C210.117 205.603 210.117 209.92 212.817 211.705Z" fill="#007AFF"/>
<g filter="url(#filter1_f_1540_14112)">
<ellipse cx="6.9766" cy="4.27393" rx="6.9766" ry="4.27393" transform="matrix(1.00465 -0.326431 -0.164565 0.902217 211.399 241.062)" fill="#007AFF"/>
</g>
<path d="M311.018 306.124L359.645 283.929L361.747 329.372L336.267 320.441L311.018 306.124Z" fill="#DFE7FE"/>
<path d="M310.771 305.708L365.159 279.004" stroke="white" stroke-width="7.91642" stroke-linecap="round"/>
<path d="M230.166 279.004L365.158 332.412" stroke="white" stroke-width="11" stroke-linecap="round"/>
<path d="M285.75 302.941L251.418 354.159" stroke="white" stroke-width="9.6121" stroke-linecap="round"/>
<path d="M97.3394 191.992L115.585 180.519" stroke="#E9E9ED" stroke-width="4" stroke-linecap="round"/>
<path d="M191.871 37.3955V33.2734H208.805L195.284 39.5711C193.693 40.3122 191.871 39.1507 191.871 37.3955Z" fill="#32323E"/>
<path d="M181.871 136.396V132.273H198.805L185.284 138.571C183.693 139.312 181.871 138.151 181.871 136.396Z" fill="#32323E"/>
<path d="M191.871 12.3076C191.871 5.6802 197.244 0.307617 203.871 0.307617H308.871C315.499 0.307617 320.871 5.6802 320.871 12.3076V21.3076C320.871 27.935 315.499 33.3076 308.871 33.3076H191.871V12.3076Z" fill="#32323E"/>
<path d="M212.561 17.124V18.3818H207.639V22.5244H206.135V18.3818H201.268V17.124H212.561ZM206.887 10.6025C209.512 10.6162 211.344 11.6826 211.344 13.3779C211.344 15.0596 209.512 16.1123 206.887 16.1123C204.248 16.1123 202.443 15.0596 202.457 13.3779C202.443 11.6826 204.248 10.6162 206.887 10.6025ZM206.887 11.833C205.137 11.833 204.002 12.4072 204.016 13.3779C204.002 14.335 205.137 14.9092 206.887 14.9092C208.637 14.9092 209.771 14.335 209.771 13.3779C209.771 12.4072 208.637 11.833 206.887 11.833ZM223.676 10.165V22.5381H222.172V10.165H223.676ZM219.875 11.2451V15.8799H215.623V18.3682C217.571 18.3545 219.253 18.2588 221.174 17.9307L221.311 19.1748C219.205 19.5439 217.359 19.6123 215.145 19.6123H214.064V14.6768H218.33V12.4756H214.051V11.2451H219.875ZM232.18 11.0674C233.854 11.0674 235.092 12.4619 235.311 14.7178H237.662V10.165H239.166V22.5381H237.662V15.9482H235.324C235.16 18.334 233.902 19.8037 232.18 19.8037C230.32 19.8037 229.008 18.1221 229.008 15.4287C229.008 12.7627 230.32 11.0674 232.18 11.0674ZM232.18 12.4346C231.154 12.4346 230.457 13.542 230.471 15.4287C230.457 17.3291 231.154 18.4365 232.18 18.4365C233.205 18.4365 233.889 17.3291 233.902 15.4287C233.889 13.542 233.205 12.4346 232.18 12.4346ZM251.184 10.165V22.5381H249.652V10.165H251.184ZM247.629 11.2861V12.5303H243.199V18.2725C245.476 18.2656 246.904 18.1973 248.545 17.9033L248.695 19.1611C246.932 19.4893 245.332 19.5576 242.721 19.5576H241.668V11.2861H247.629ZM257.568 13.1318C257.568 15.4287 258.662 17.6846 260.631 18.5459L259.715 19.7627C258.313 19.0791 257.329 17.7666 256.803 16.1533C256.263 17.8555 255.258 19.2705 253.836 19.9951L252.879 18.7646C254.889 17.8213 256.01 15.4424 256.023 13.1318V11.1631H257.568V13.1318ZM263.365 10.165V22.5381H261.861V15.3877H259.264V14.1572H261.861V10.165H263.365ZM274.699 11.2314V17.0693H268.848V11.2314H274.699ZM270.338 12.4482V15.8662H273.209V12.4482H270.338ZM278.172 10.165V13.7881H279.895V15.0596H278.172V19.1885H276.654V10.165H278.172ZM278.664 21.0479V22.2783H270.256V18.3135H271.773V21.0479H278.664ZM290.271 10.165V12.5713H291.994V13.8291H290.271V16.3174H288.754V10.165H290.271ZM282.588 10.7119V14.6084C284.153 14.5947 285.835 14.4648 287.633 14.1162L287.811 15.3604C285.76 15.7842 283.873 15.8936 282.082 15.8799H281.057V10.7119H282.588ZM290.271 16.8506V20.1318H283.723V21.1436H290.654V22.374H282.205V18.9697H288.74V18.0537H282.191V16.8506H290.271ZM302.48 10.165V15.1006H304.189V16.3584H302.48V22.5244H300.949V10.165H302.48ZM296.328 11.4639C296.314 14.7041 295.863 17.4385 293.635 19.8447L292.445 18.9834C294.188 17.1377 294.756 15.1826 294.879 12.708H292.938V11.4639H296.328ZM299.746 11.4639C299.732 14.7861 299.391 17.958 297.162 20.6377L295.945 19.8037C297.709 17.7051 298.201 15.3877 298.311 12.708H296.738V11.4639H299.746ZM306.814 18.2725C306.828 16.5361 307.32 16.0029 308.182 15.4697C308.77 15.1006 309.207 14.6357 309.207 13.9521C309.207 13.1865 308.619 12.6943 307.867 12.6943C307.184 12.6943 306.527 13.1318 306.486 14.0479H304.777C304.818 12.2158 306.199 11.2725 307.881 11.2725C309.727 11.2725 310.998 12.2979 310.998 13.9248C310.998 15.0322 310.438 15.7568 309.549 16.29C308.756 16.7686 308.428 17.2471 308.414 18.2725V18.3955H306.814V18.2725ZM307.662 21.417C307.074 21.417 306.596 20.9385 306.596 20.3506C306.596 19.7764 307.074 19.2979 307.662 19.2979C308.223 19.2979 308.715 19.7764 308.715 20.3506C308.715 20.9385 308.223 21.417 307.662 21.417Z" fill="white"/>
<path d="M181.871 111.308C181.871 104.68 187.244 99.3076 193.871 99.3076H259.871C266.499 99.3076 271.871 104.68 271.871 111.308V120.308C271.871 126.935 266.499 132.308 259.871 132.308H181.871V111.308Z" fill="#32323E"/>
<path d="M194.658 110.067C195.779 110.067 196.702 110.689 197.256 111.776H200.141V109.165H201.645V121.538H200.141V116.862H197.365C196.832 118.093 195.854 118.804 194.658 118.804C192.799 118.804 191.486 117.122 191.486 114.429C191.486 111.763 192.799 110.067 194.658 110.067ZM194.658 111.435C193.633 111.435 192.936 112.542 192.949 114.429C192.936 116.329 193.633 117.437 194.658 117.437C195.684 117.437 196.367 116.329 196.381 114.429C196.367 112.542 195.684 111.435 194.658 111.435ZM197.68 113.021C197.769 113.451 197.816 113.923 197.816 114.429C197.816 114.859 197.782 115.256 197.721 115.632H200.141V113.021H197.68ZM213.703 109.165V121.524H212.172V109.165H213.703ZM210.012 110.478C210.012 114.155 208.59 117.286 204.256 119.337L203.463 118.12C206.696 116.582 208.2 114.49 208.467 111.681H204.092V110.478H210.012ZM225.488 112.665V113.868H216.93V109.616H218.434V112.665H225.488ZM226.76 115.304V116.507H215.467V115.304H226.76ZM225.57 120.007V121.237H216.82V117.601H218.338V120.007H225.57ZM234.279 110.067C235.954 110.067 237.191 111.462 237.41 113.718H239.762V109.165H241.266V121.538H239.762V114.948H237.424C237.26 117.334 236.002 118.804 234.279 118.804C232.42 118.804 231.107 117.122 231.107 114.429C231.107 111.763 232.42 110.067 234.279 110.067ZM234.279 111.435C233.254 111.435 232.557 112.542 232.57 114.429C232.557 116.329 233.254 117.437 234.279 117.437C235.305 117.437 235.988 116.329 236.002 114.429C235.988 112.542 235.305 111.435 234.279 111.435ZM251.246 109.397V114.046H252.367V109.165H253.803V121.524H252.367V115.29H251.246V120.937H249.852V109.397H251.246ZM245.914 110.669V111.899H244.656V117.163C245.039 117.136 245.47 117.074 245.941 116.958L246.064 118.229C245.121 118.435 244.396 118.448 243.795 118.448H243.262V110.669H245.914ZM249.141 110.669V111.899H247.787V117.177C248.252 117.156 248.751 117.095 249.318 116.944L249.428 118.216C248.471 118.435 247.705 118.448 246.953 118.448H246.42V110.669H249.141ZM257.193 117.272C257.207 115.536 257.699 115.003 258.561 114.47C259.148 114.101 259.586 113.636 259.586 112.952C259.586 112.187 258.998 111.694 258.246 111.694C257.562 111.694 256.906 112.132 256.865 113.048H255.156C255.197 111.216 256.578 110.272 258.26 110.272C260.105 110.272 261.377 111.298 261.377 112.925C261.377 114.032 260.816 114.757 259.928 115.29C259.135 115.769 258.807 116.247 258.793 117.272V117.396H257.193V117.272ZM258.041 120.417C257.453 120.417 256.975 119.938 256.975 119.351C256.975 118.776 257.453 118.298 258.041 118.298C258.602 118.298 259.094 118.776 259.094 119.351C259.094 119.938 258.602 120.417 258.041 120.417Z" fill="white"/>
<path d="M162.934 88.3955V84.2734H146L159.52 90.5711C161.111 91.3122 162.934 90.1507 162.934 88.3955Z" fill="#32323E"/>
<path d="M162.839 63.3076C162.839 56.6802 157.467 51.3076 150.839 51.3076H48.8394C42.2119 51.3076 36.8394 56.6802 36.8394 63.3076V72.3076C36.8394 78.935 42.2119 84.3076 48.8394 84.3076H162.839V63.3076Z" fill="#32323E"/>
<path d="M57.5151 66.8389V68.0693H52.6206V69.0947C54.8354 69.2451 56.1343 70.0107 56.1479 71.2959C56.1343 72.7178 54.5347 73.5107 51.8687 73.5107C49.1753 73.5107 47.562 72.7178 47.562 71.2959C47.562 70.0107 48.8745 69.2383 51.1167 69.0947V68.0693H46.2495V66.8389H57.5151ZM51.8687 70.2432C50.064 70.2568 49.0933 70.6123 49.1069 71.2959C49.0933 71.9795 50.064 72.3486 51.8687 72.3486C53.6323 72.3486 54.6167 71.9795 54.6304 71.2959C54.6167 70.6123 53.6323 70.2568 51.8687 70.2432ZM56.5034 61.7119V62.9287H52.9487C53.188 63.9473 54.6646 64.8633 56.9819 65.0752L56.4487 66.2783C54.2065 66.0527 52.5386 65.1572 51.8687 63.8994C51.1987 65.1504 49.5581 66.0527 47.3159 66.2783L46.7964 65.0752C49.0659 64.8633 50.5425 63.9336 50.8022 62.9287H47.2749V61.7119H56.5034ZM68.0972 61.165V64.7197H69.8198V65.9912H68.0972V70.0791H66.5522V61.165H68.0972ZM64.7339 62.1084C64.7339 65.3896 62.6011 67.7275 58.937 68.7939L58.3081 67.5908C61.1313 66.7773 62.813 65.2393 63.0796 63.3525H58.8276V62.1084H64.7339ZM68.562 72.0479V73.2783H60.1538V69.1631H61.6987V72.0479H68.562ZM75.1108 64.6787C75.1108 66.7021 76.3003 68.835 78.2964 69.6689L77.4624 70.8721C75.9995 70.2432 74.9331 68.9443 74.3726 67.3721C73.7983 69.0674 72.7183 70.4893 71.269 71.1729L70.394 69.9834C72.3491 69.0811 73.5659 66.7842 73.5659 64.6787V63.6396H70.8452V62.3818H77.8179V63.6396H75.1108V64.6787ZM80.73 61.165V73.5244H79.1987V61.165H80.73ZM92.8979 61.165V68.3428H91.3804V65.3486H89.2476V64.1045H91.3804V61.165H92.8979ZM92.8979 68.876V73.374H84.6812V68.876H92.8979ZM86.1987 70.0791V72.1436H91.4077V70.0791H86.1987ZM87.0874 63.2021C87.0874 64.6924 88.0854 66.21 89.9995 66.8662L89.2339 68.0693C87.853 67.5977 86.8755 66.6611 86.3354 65.499C85.7886 66.7842 84.7563 67.8164 83.3003 68.3018L82.521 67.1123C84.4897 66.4561 85.5425 64.8291 85.5425 63.1885V63.0928H82.9722V61.8623H89.644V63.0928H87.0874V63.2021ZM104.929 61.165V73.5381H103.398V61.165H104.929ZM98.271 62.0674C100.13 62.0674 101.484 63.7627 101.498 66.4287C101.484 69.1221 100.13 70.8037 98.271 70.8037C96.3979 70.8037 95.0444 69.1221 95.0444 66.4287C95.0444 63.7627 96.3979 62.0674 98.271 62.0674ZM98.271 63.4346C97.2183 63.4346 96.5073 64.542 96.5073 66.4287C96.5073 68.3291 97.2183 69.4365 98.271 69.4365C99.3101 69.4365 100.021 68.3291 100.021 66.4287C100.021 64.542 99.3101 63.4346 98.271 63.4346ZM113.447 62.0674C115.122 62.0674 116.359 63.4619 116.578 65.7178H118.929V61.165H120.433V73.5381H118.929V66.9482H116.591C116.427 69.334 115.169 70.8037 113.447 70.8037C111.587 70.8037 110.275 69.1221 110.275 66.4287C110.275 63.7627 111.587 62.0674 113.447 62.0674ZM113.447 63.4346C112.421 63.4346 111.724 64.542 111.738 66.4287C111.724 68.3291 112.421 69.4365 113.447 69.4365C114.472 69.4365 115.156 68.3291 115.169 66.4287C115.156 64.542 114.472 63.4346 113.447 63.4346ZM132.451 61.165V73.5381H130.919V61.165H132.451ZM128.896 62.2861V63.5303H124.466V69.2725C126.743 69.2656 128.171 69.1973 129.812 68.9033L129.962 70.1611C128.199 70.4893 126.599 70.5576 123.988 70.5576H122.935V62.2861H128.896ZM138.931 64.6787C138.931 66.7021 140.121 68.835 142.117 69.6689L141.283 70.8721C139.82 70.2432 138.753 68.9443 138.193 67.3721C137.619 69.0674 136.539 70.4893 135.089 71.1729L134.214 69.9834C136.169 69.0811 137.386 66.7842 137.386 64.6787V63.6396H134.666V62.3818H141.638V63.6396H138.931V64.6787ZM144.55 61.165V73.5244H143.019V61.165H144.55ZM148.46 69.2725C148.474 67.5361 148.966 67.0029 149.828 66.4697C150.416 66.1006 150.853 65.6357 150.853 64.9521C150.853 64.1865 150.265 63.6943 149.513 63.6943C148.83 63.6943 148.173 64.1318 148.132 65.0479H146.423C146.464 63.2158 147.845 62.2725 149.527 62.2725C151.373 62.2725 152.644 63.2979 152.644 64.9248C152.644 66.0322 152.083 66.7568 151.195 67.29C150.402 67.7686 150.074 68.2471 150.06 69.2725V69.3955H148.46V69.2725ZM149.308 72.417C148.72 72.417 148.242 71.9385 148.242 71.3506C148.242 70.7764 148.72 70.2979 149.308 70.2979C149.869 70.2979 150.361 70.7764 150.361 71.3506C150.361 71.9385 149.869 72.417 149.308 72.417Z" fill="white"/>
<path d="M308.258 219.031L175.782 311.721" stroke="white" stroke-width="11" stroke-linecap="round"/>
<path d="M298.196 248.642L317.893 238.426V252.003L298.196 262.851L298.196 248.642Z" fill="#FA897A"/>
<path d="M287.193 242.991L298.195 248.633L298.195 262.85L287.193 255.735L287.193 242.991Z" fill="#D05849"/>
<path d="M287.182 243.028L306.56 233.002L317.883 238.432L298.206 248.644L287.182 243.028Z" fill="#FCB0A6"/>
<path d="M288.196 304.642L307.893 294.426V308.003L288.196 318.851L288.196 304.642Z" fill="#CDDCF3"/>
<path d="M277.193 298.991L288.195 304.633L288.195 318.85L277.193 311.735L277.193 298.991Z" fill="#A5C2E0"/>
<path d="M277.182 299.028L296.56 289.002L307.883 294.432L288.206 304.644L277.182 299.028Z" fill="#F6F9FE"/>
<path d="M309.055 311.281L328.752 301.065V322.355L309.055 333.203L309.055 311.281Z" fill="#CDDCF3"/>
<path d="M298.052 305.635L309.053 311.277L309.053 333.202L298.051 326.087L298.052 305.635Z" fill="#A5C2E0"/>
<path d="M298.142 305.623L317.496 296.07L328.764 301.054L309.142 311.711L298.142 305.623Z" fill="#F6F9FE"/>
<defs>
<filter id="filter0_d_1540_14112" x="16.4429" y="126.543" width="436.198" height="292.184" filterUnits="userSpaceOnUse" color-interpolation-filters="sRGB">
<feFlood flood-opacity="0" result="BackgroundImageFix"/>
<feColorMatrix in="SourceAlpha" type="matrix" values="0 0 0 0 0 0 0 0 0 0 0 0 0 0 0 0 0 0 127 0" result="hardAlpha"/>
<feOffset/>
<feGaussianBlur stdDeviation="10"/>
<feComposite in2="hardAlpha" operator="out"/>
<feColorMatrix type="matrix" values="0 0 0 0 0 0 0 0 0 0 0 0 0 0 0 0 0 0 0.1 0"/>
<feBlend mode="normal" in2="BackgroundImageFix" result="effect1_dropShadow_1540_14112"/>
<feBlend mode="normal" in="SourceGraphic" in2="effect1_dropShadow_1540_14112" result="shape"/>
</filter>
<filter id="filter1_f_1540_14112" x="200.439" y="227.94" width="34.532" height="29.4004" filterUnits="userSpaceOnUse" color-interpolation-filters="sRGB">
<feFlood flood-opacity="0" result="BackgroundImageFix"/>
<feBlend mode="normal" in="SourceGraphic" in2="BackgroundImageFix" result="shape"/>
<feGaussianBlur stdDeviation="5.1106" result="effect1_foregroundBlur_1540_14112"/>
</filter>
<linearGradient id="paint0_linear_1540_14112" x1="103.887" y1="41.2829" x2="116.175" y2="188.801" gradientUnits="userSpaceOnUse">
<stop stop-color="#71A6E0"/>
<stop offset="1" stop-color="#FCFDFE"/>
</linearGradient>
<linearGradient id="paint1_linear_1540_14112" x1="88.3923" y1="264.351" x2="267.973" y2="439.196" gradientUnits="userSpaceOnUse">
<stop stop-color="#2E5178"/>
<stop offset="0.461538" stop-color="#9DB8D5"/>
<stop offset="1" stop-color="#294A6F"/>
</linearGradient>
</defs>
</svg>
