<svg width="128" height="128" viewBox="0 0 128 128" fill="none" xmlns="http://www.w3.org/2000/svg">
<path d="M75.096 81.9801L75.7699 69.4541L109.666 70.93V83.8909C109.958 88.6716 102.064 88.8505 98.0798 88.3423L87.7977 87.8423L78.9013 86.711C75.5279 86.3407 74.9588 83.4028 75.096 81.9801Z" fill="#32323E"/>
<path d="M22.403 86.5727C22.403 77.6272 29.6548 70.3755 38.6003 70.3755H43.4039H48.2075C57.153 70.3755 64.4047 77.6272 64.4047 86.5727L64.4047 114.827L22.403 114.827L22.403 86.5727Z" fill="#739FFF"/>
<path d="M71.3761 105.263C71.3761 96.9038 77.7367 89.9178 86.0589 89.1363L92.3769 88.543L98.4253 88.8159C106.719 89.1901 111.894 97.9611 108.212 105.402L105.354 111.179H71.3761V105.263Z" fill="#FFABB6"/>
<path d="M43.403 32.9873C52.9072 32.9875 60.6127 40.692 60.6129 50.1963C60.6129 57.9388 55.4991 64.4866 48.4655 66.6484V70.374L48.4586 70.4785C48.323 71.5483 46.112 72.3994 43.4039 72.3994C40.609 72.3994 38.3433 71.4929 38.3424 70.375V66.6494C31.3077 64.4882 26.194 57.9396 26.194 50.1963C26.1942 40.692 33.8986 32.9874 43.403 32.9873Z" fill="#FFE4E4"/>
<path d="M92.877 51.2095C102.381 51.2097 110.086 58.9142 110.086 68.4185C110.086 76.1609 104.973 82.7087 97.9395 84.8706V88.5972L97.9326 88.7017C97.7966 89.7713 95.5848 90.6216 92.877 90.6216C90.0826 90.6215 87.8169 89.7158 87.8155 88.5981V84.8716C80.781 82.7102 75.667 76.1616 75.667 68.4185C75.6673 58.9141 83.3726 51.2095 92.877 51.2095Z" fill="#FFE4E4"/>
<path d="M42.7422 42.9978C38.9686 49.5667 30.227 51.5495 26.256 51.715C25.2437 38.5547 36.8854 32.9869 41.9471 32.9869C58.5493 31.7721 62.1936 47.1595 60.169 53.7396C52.7997 54.7222 45.9072 47.2804 43.1943 42.9852C43.089 42.8186 42.8403 42.8269 42.7422 42.9978Z" fill="#32323E"/>
<path d="M97.0179 61.3407C92.972 67.8132 79.6757 69.7727 75.7291 69.9371C74.7167 56.7768 86.3585 51.2091 91.4201 51.2091C108.022 49.9943 111.667 65.3817 109.642 71.9618C102.37 72.9314 99.0162 65.7644 97.5039 61.3871C97.431 61.1763 97.1362 61.1515 97.0179 61.3407Z" fill="#32323E"/>
<ellipse cx="39.607" cy="54.7529" rx="1.26541" ry="1.51849" fill="#32323E"/>
<ellipse cx="46.693" cy="54.7524" rx="1.26541" ry="1.51849" fill="#32323E"/>
<ellipse cx="84.5553" cy="72.3813" rx="1.26541" ry="1.51849" fill="#32323E"/>
<ellipse cx="91.6413" cy="72.3813" rx="1.26541" ry="1.51849" fill="#32323E"/>
<ellipse cx="59.6635" cy="55.6966" rx="4.04931" ry="4.55548" fill="#FFE4E4"/>
<ellipse cx="109.136" cy="73.9188" rx="4.04931" ry="4.55548" fill="#FFE4E4"/>
<ellipse cx="27.2056" cy="55.6966" rx="4.04931" ry="4.55548" fill="#FFE4E4"/>
<path d="M41.6143 58.5454H44.6512V59.0516C44.6512 59.8902 43.9714 60.5701 43.1327 60.5701C42.2941 60.5701 41.6143 59.8902 41.6143 59.0516V58.5454Z" fill="#DB898B"/>
<path d="M86.2974 76.459H89.3344V76.9651C89.3344 77.8038 88.6546 78.4836 87.8159 78.4836C86.9773 78.4836 86.2974 77.8038 86.2974 76.9651V76.459Z" fill="#DB898B"/>
<path d="M32.2968 97.3978C18.8742 106.848 13.1599 98.3562 11.9806 92.9288L17.2306 88.8374L25.206 77.4716L28.1879 86.0981L33.1529 88.8374L32.2968 97.3978Z" fill="#739FFF"/>
<path d="M9.43331 72.7263L25.571 65.1023L37.6777 97.2935L18.2754 95.7999L9.43331 72.7263Z" fill="#F7F7F8"/>
<path d="M10.4021 80.5121C12.1187 79.7235 14.1503 80.4622 14.9593 82.1693L15.1185 82.5052L18.7997 90.2725C20.1208 93.0601 17.3982 96.0477 14.5002 94.9903L10.2108 93.4252C9.34345 93.1087 8.63919 92.4578 8.25557 91.618L5.86484 86.3846C5.07445 84.6545 5.83384 82.611 7.56229 81.8169L10.4021 80.5121Z" fill="#FFE4E4"/>
<mask id="mask0_1392_12659" style="mask-type:alpha" maskUnits="userSpaceOnUse" x="5" y="80" width="15" height="16">
<path d="M18.3863 90.4693C19.4956 92.8106 17.315 95.3142 14.8935 94.6351L14.6587 94.5592L10.3686 92.9945C9.61668 92.7201 9.00628 92.1552 8.67369 91.4271L6.28344 86.1943C5.59818 84.6942 6.25614 82.9226 7.75466 82.234L10.5943 80.9294C12.0362 80.2669 13.7348 80.847 14.4771 82.2298L14.5461 82.3658L18.3863 90.4693Z" fill="#F7D8BC" stroke="#F5BB88" stroke-width="0.917378"/>
</mask>
<g mask="url(#mask0_1392_12659)">
<path d="M11.4998 84.5291C11.1823 84.5291 10.9249 84.7865 10.9249 85.104C10.9249 85.4215 11.1823 85.6789 11.4998 85.6789V84.5291ZM11.4998 85.104V85.6789H16.8038V85.104V84.5291H11.4998V85.104Z" fill="#F8AEAE"/>
<path d="M13.4082 88.6043C13.0907 88.6043 12.8333 88.8617 12.8333 89.1792C12.8333 89.4967 13.0907 89.7541 13.4082 89.7541V88.6043ZM13.4082 89.1792V89.7541H18.7123V89.1792V88.6043H13.4082V89.1792Z" fill="#F8AEAE"/>
</g>
<path d="M83.2974 109.345C83.2974 108.074 84.327 107.045 85.5971 107.045H106.157V117.901H85.5971C84.327 117.901 83.2974 116.871 83.2974 115.601V109.345Z" fill="#FF8F9E"/>
<path d="M98.4563 97.1835C97.2485 93.9272 99.2268 90.3604 102.629 89.6609C105.227 89.1265 107.849 90.466 108.938 92.8848L115.787 108.091C117.817 112.598 114.588 117.714 109.646 117.821L106.14 117.897L98.4563 97.1835Z" fill="#FF8F9E"/>
<ellipse cx="65.5852" cy="20.17" rx="13.2188" ry="10.2813" fill="#E9E9ED"/>
<path d="M55.7218 31.7034L55.3039 25.0562L62.8967 28.786L58.1251 32.7419C57.2006 33.5083 55.7971 32.9018 55.7218 31.7034Z" fill="#E9E9ED"/>
<circle cx="59.7102" cy="20.1699" r="1.46875" fill="#49495A"/>
<circle cx="65.5852" cy="20.1699" r="1.46875" fill="#49495A"/>
<circle cx="71.4602" cy="20.1699" r="1.46875" fill="#49495A"/>
<ellipse cx="10.5987" cy="7.67043" rx="10.5987" ry="7.67043" transform="matrix(-1 0 0 1 96.1594 30.498)" fill="#E9E9ED"/>
<path d="M93.6569 46.7727L93.9687 41.8135L88.3041 44.5961L91.864 47.5475C92.5536 48.1193 93.6007 47.6668 93.6569 46.7727Z" fill="#E9E9ED"/>
<path d="M32.7242 97.7591C32.3655 96.5804 33.2474 95.3901 34.4795 95.3901H61.0531C61.865 95.3901 62.5803 95.9236 62.8117 96.7017L67.9969 114.132C68.3469 115.308 67.4656 116.49 66.2383 116.49H39.7843C38.9768 116.49 38.2642 115.962 38.0291 115.189L32.7242 97.7591Z" fill="#9494A8"/>
<path d="M61.5268 110.598C61.6759 110.552 61.8343 110.544 61.9871 110.576L75.2843 113.376C76.237 113.576 76.2624 114.927 75.3178 115.163L70.1201 116.463C70.0474 116.481 69.9726 116.49 69.8976 116.49H48.5556C47.5035 116.49 47.2793 115.008 48.2844 114.697L61.5268 110.598Z" fill="#9494A8"/>
<circle cx="2.75213" cy="2.75213" r="2.75213" transform="matrix(0.99863 -0.052336 0.139173 0.990268 47.2198 103.77)" fill="#CDCDD6"/>
<rect x="71.8933" y="106.351" width="13.6514" height="9.97582" rx="4.83795" transform="rotate(5.29074 71.8933 106.351)" fill="#FFE4E4"/>
</svg>
