<svg width="32" height="32" viewBox="0 0 32 32" fill="none" xmlns="http://www.w3.org/2000/svg">
<mask id="mask0_1371_13353" style="mask-type:alpha" maskUnits="userSpaceOnUse" x="4" y="5" width="24" height="24">
<circle cx="16" cy="17" r="6.875" fill="white"/>
<path d="M16.0059 25.75C16.6961 25.7496 17.2563 26.3088 17.2568 26.999C17.2573 27.6892 16.698 28.2493 16.0078 28.25H15.9922C15.302 28.2493 14.7427 27.6892 14.7432 26.999C14.7437 26.3088 15.3039 25.7496 15.9941 25.75H16.0059ZM8.04102 23.1816C8.49902 22.7244 9.22322 22.6968 9.71387 23.0977L9.80859 23.1836L9.81641 23.1914L9.90234 23.2861C10.3032 23.7768 10.2756 24.501 9.81836 24.959C9.36106 25.4169 8.63673 25.4459 8.14551 25.0459L8.0498 24.96L8.04004 24.9502L7.9541 24.8545C7.55412 24.3633 7.58312 23.6389 8.04102 23.1816ZM22.2861 23.0977C22.7768 22.6968 23.501 22.7244 23.959 23.1816C24.4475 23.6695 24.4478 24.4617 23.96 24.9502L23.9502 24.96L23.8545 25.0459C23.3633 25.4459 22.6389 25.4169 22.1816 24.959C21.694 24.4705 21.6952 23.6792 22.1836 23.1914L22.1914 23.1836L22.2861 23.0977ZM4.75 16.9922C4.75068 16.302 5.31077 15.7427 6.00098 15.7432C6.69122 15.7437 7.2504 16.3039 7.25 16.9941V17.0059L7.24316 17.1338C7.17944 17.764 6.64802 18.2563 6.00098 18.2568C5.35364 18.2573 4.82108 17.7652 4.75684 17.1348L4.75 17.0078V16.9922ZM24.75 16.9941L24.7568 16.8662C24.8206 16.236 25.352 15.7437 25.999 15.7432C26.6464 15.7427 27.1789 16.2348 27.2432 16.8652L27.25 16.9922V17.0078C27.2493 17.698 26.6892 18.2573 25.999 18.2568C25.3088 18.2563 24.7496 17.6961 24.75 17.0059V16.9941ZM8.14551 8.9541C8.63673 8.55412 9.36106 8.58312 9.81836 9.04102C10.306 9.5295 10.3048 10.3208 9.81641 10.8086L9.80859 10.8164L9.71387 10.9023C9.22322 11.3032 8.49902 11.2756 8.04102 10.8184C7.55254 10.3305 7.5522 9.53828 8.04004 9.0498L8.0498 9.04004L8.14551 8.9541ZM22.1816 9.04102C22.6389 8.58312 23.3633 8.55412 23.8545 8.9541L23.9502 9.04004L23.96 9.0498L24.0459 9.14551C24.4459 9.63673 24.4169 10.3611 23.959 10.8184C23.501 11.2756 22.7768 11.3032 22.2861 10.9023L22.1914 10.8164L22.1836 10.8086L22.0977 10.7139C21.6968 10.2232 21.7244 9.49902 22.1816 9.04102ZM16.0078 5.75C16.698 5.75068 17.2573 6.31077 17.2568 7.00098C17.2563 7.69122 16.6961 8.2504 16.0059 8.25H15.9941C15.3039 8.25039 14.7437 7.69122 14.7432 7.00098C14.7427 6.31077 15.302 5.75068 15.9922 5.75H16.0078Z" fill="white"/>
</mask>
<g mask="url(#mask0_1371_13353)">
<path d="M4 5H29L28 14L23.5 17H8L4.5 13L4 5Z" fill="#606076"/>
</g>
<path d="M5 17H27" stroke="#606076" stroke-width="2" stroke-linecap="round"/>
<path d="M8 21L17 21" stroke="#606076" stroke-width="2" stroke-linecap="round"/>
<path d="M21 21H25" stroke="#606076" stroke-width="2" stroke-linecap="round"/>
<path d="M14 25H18" stroke="#606076" stroke-width="2" stroke-linecap="round"/>
</svg>
