<svg xmlns="http://www.w3.org/2000/svg" width="16" height="16" viewBox="0 0 16 16" fill="none">
  <path fill-rule="evenodd" clip-rule="evenodd" d="M8.54058 14.3703C10.0156 13.5117 14 10.8376 14 7.00387C14 3.87214 11.3137 1.33337 8 1.33337C4.68629 1.33337 2 3.87214 2 7.00387C2 10.7096 5.99541 13.4701 7.4655 14.3603C7.79757 14.5614 8.20506 14.5656 8.54058 14.3703ZM8 9.33336C9.28866 9.33336 10.3333 8.45836 10.3333 7.00003C10.3333 5.5417 9.28866 4.6667 8 4.6667C6.71134 4.6667 5.66667 5.5417 5.66667 7.00003C5.66667 8.45836 6.71134 9.33336 8 9.33336Z" fill="#9494A8"/>
</svg>