<svg xmlns="http://www.w3.org/2000/svg" width="12" height="12" viewBox="0 0 12 12" fill="none">
  <path fill-rule="evenodd" clip-rule="evenodd" d="M2.5 1.5C1.94772 1.5 1.5 1.94772 1.5 2.5V7.5C1.5 8.05228 1.94772 8.5 2.5 8.5H3V9.89645C3 10.1192 3.26929 10.2307 3.42678 10.0732L5 8.5H9.5C10.0523 8.5 10.5 8.05228 10.5 7.5V2.5C10.5 1.94772 10.0523 1.5 9.5 1.5H2.5Z" fill="#007AFF"/>
  <path d="M3 8.5H3.5C3.5 8.22386 3.27614 8 3 8V8.5ZM3.42678 10.0732L3.07322 9.71967L3.07322 9.71967L3.42678 10.0732ZM5 8.5V8C4.86739 8 4.74021 8.05268 4.64645 8.14645L5 8.5ZM2 2.5C2 2.22386 2.22386 2 2.5 2V1C1.67157 1 1 1.67157 1 2.5H2ZM2 7.5V2.5H1V7.5H2ZM2.5 8C2.22386 8 2 7.77614 2 7.5H1C1 8.32843 1.67157 9 2.5 9V8ZM3 8H2.5V9H3V8ZM3.5 9.89645V8.5H2.5V9.89645H3.5ZM3.07322 9.71967C3.23072 9.56218 3.5 9.67372 3.5 9.89645H2.5C2.5 10.5646 3.30786 10.8993 3.78033 10.4268L3.07322 9.71967ZM4.64645 8.14645L3.07322 9.71967L3.78033 10.4268L5.35355 8.85355L4.64645 8.14645ZM9.5 8H5V9H9.5V8ZM10 7.5C10 7.77614 9.77614 8 9.5 8V9C10.3284 9 11 8.32843 11 7.5H10ZM10 2.5V7.5H11V2.5H10ZM9.5 2C9.77614 2 10 2.22386 10 2.5H11C11 1.67157 10.3284 1 9.5 1V2ZM2.5 2H9.5V1H2.5V2Z" fill="#007AFF"/>
  <path d="M3.5 4H8.5" stroke="#E6F2FF" stroke-linecap="round"/>
  <path d="M3.5 6H7.5" stroke="#E6F2FF" stroke-linecap="round"/>
</svg>