<svg xmlns="http://www.w3.org/2000/svg" width="20" height="20" viewBox="0 0 20 20" fill="none">
  <rect x="7.5" y="12.5" width="4.16667" height="2.5" rx="1.25" transform="rotate(90 7.5 12.5)" fill="#B0B0BF"/>
  <rect x="15" y="12.5" width="4.16667" height="2.5" rx="1.25" transform="rotate(90 15 12.5)" fill="#B0B0BF"/>
  <path d="M5 4.16667C5 3.24619 5.74619 2.5 6.66667 2.5H13.3333C14.2538 2.5 15 3.24619 15 4.16667V11.6667H5V4.16667Z" fill="#CDCDD6"/>
  <path fill-rule="evenodd" clip-rule="evenodd" d="M4.58331 7.5C5.27367 7.5 5.83331 8.05964 5.83331 8.75V10.8333H14.1666V8.75C14.1666 8.05964 14.7263 7.5 15.4166 7.5C16.107 7.5 16.6666 8.05964 16.6666 8.75V13.3333C16.6666 13.7936 16.2935 14.1667 15.8333 14.1667H14.1666L5.83331 14.1667L4.16665 14.1667C3.70641 14.1667 3.33331 13.7936 3.33331 13.3333L3.33331 8.75C3.33331 8.05964 3.89296 7.5 4.58331 7.5Z" fill="#9494A8"/>
</svg>