<svg xmlns="http://www.w3.org/2000/svg" width="20" height="20" viewBox="0 0 20 20" fill="none">
  <path d="M8.94327 3.25228C9.27588 2.2286 10.7241 2.2286 11.0567 3.25228L11.9957 6.14207C12.1444 6.59987 12.571 6.90983 13.0524 6.90983H16.0909C17.1673 6.90983 17.6148 8.28718 16.744 8.91985L14.2858 10.7058C13.8964 10.9888 13.7334 11.4903 13.8822 11.9481L14.8211 14.8379C15.1537 15.8616 13.9821 16.7128 13.1113 16.0802L10.6531 14.2942C10.2637 14.0112 9.73633 14.0112 9.3469 14.2942L6.8887 16.0802C6.01791 16.7128 4.84626 15.8616 5.17888 14.8379L6.11783 11.9481C6.26658 11.4903 6.10362 10.9888 5.71419 10.7058L3.25599 8.91985C2.38519 8.28718 2.83272 6.90983 3.90908 6.90983H6.94759C7.42895 6.90983 7.85557 6.59987 8.00432 6.14207L8.94327 3.25228Z" fill="#F5A202"/>
</svg>