<svg width="20" height="21" viewBox="0 0 20 21" fill="none" xmlns="http://www.w3.org/2000/svg">
<path d="M3.33337 4.34301C3.33337 3.55904 3.88019 2.8771 4.65028 2.7302C8.68492 1.96055 11.3907 2.01523 15.3313 2.73948C16.1098 2.88258 16.6667 3.56824 16.6667 4.35982V15.4999C16.6667 16.4204 15.9205 17.1665 15 17.1665H5.00004C4.07957 17.1665 3.33337 16.4204 3.33337 15.4999V4.34301Z" fill="#00B140"/>
<path d="M5 10.3339C5 11.1719 5.62244 11.8836 6.45602 11.9702C9.07266 12.2419 10.9733 12.2236 13.532 11.9643C14.3705 11.8793 15 11.1656 15 10.3229V7.1665C15 6.24603 14.2538 5.49984 13.3333 5.49984H6.66667C5.74619 5.49984 5 6.24603 5 7.1665V10.3339Z" fill="white"/>
<path d="M5 17.1665H7.5V17.8332C7.5 18.3855 7.05228 18.8332 6.5 18.8332H6C5.44772 18.8332 5 18.3855 5 17.8332V17.1665Z" fill="#49495A"/>
<path d="M17.5977 8C18.018 8 18.3725 7.68705 18.4246 7.27003L18.6329 5.60336C18.6951 5.10598 18.3073 4.66667 17.806 4.66667L17.5 4.66667C17.2699 4.66667 17.0833 4.85321 17.0833 5.08333L17.0833 7.58333C17.0833 7.81345 17.2699 8 17.5 8L17.5977 8Z" fill="#49495A"/>
<path d="M2.40232 8C1.98205 8 1.62755 7.68705 1.57542 7.27003L1.36709 5.60336C1.30491 5.10598 1.69274 4.66667 2.19399 4.66667L2.5 4.66667C2.73012 4.66667 2.91667 4.85321 2.91667 5.08333L2.91667 7.58333C2.91667 7.81345 2.73012 8 2.5 8L2.40232 8Z" fill="#49495A"/>
<path d="M12.5 17.1665H15V17.8332C15 18.3855 14.5523 18.8332 14 18.8332H13.5C12.9477 18.8332 12.5 18.3855 12.5 17.8332V17.1665Z" fill="#49495A"/>
<circle cx="5.83333" cy="13.8333" r="0.833333" fill="white"/>
<circle cx="14.1667" cy="13.8333" r="0.833333" fill="white"/>
<g style="mix-blend-mode:darken" opacity="0.3">
<rect x="7.5" y="14.25" width="5" height="1.66667" rx="0.5" fill="#1C1C22"/>
</g>
<g style="mix-blend-mode:darken" opacity="0.3">
<rect x="8.33337" y="3" width="3.33333" height="0.833333" rx="0.416667" fill="#1C1C22"/>
</g>
</svg>
